<svg xmlns="http://www.w3.org/2000/svg" xmlns:xlink="http://www.w3.org/1999/xlink" width="400" height="8" class="divider-svg"><style type="text/css"><![CDATA[
  .wings {fill:#000000;fill-opacity:1;stroke:none}
  .line {fill:none;stroke:#000000;stroke-width:1}
  .ball {fill:#000000;stroke:none;}
]]></style><g transform="translate(0 -1044.362)" id="layer1"><path class="wings" d="M186.844 1046.175s-50.344 2.688-140.344 2.688c90 0 140.344 2.688 140.344 2.688s4.987-2.499 19.656-2.688c-14.669-.189-19.656-2.688-19.656-2.688z" id="path2874"/><path class="line" d="M5 1048.862h195" id="path2870"/><path class="ball" d="M205 12.5a2.5 2.5 0 1 1-5 0 2.5 2.5 0 1 1 5 0z" transform="translate(-2.5 1036.362)" id="path2872"/><use transform="matrix(-1 0 0 1 400 0)" id="use2879" width="400" height="20" xlink:href="#path2874"/><use transform="matrix(-1 0 0 1 400 0)" id="use2881" width="400" height="20" xlink:href="#path2870"/></g></svg>