<svg xmlns="http://www.w3.org/2000/svg" width="675" height="624" viewBox="0 -2 675 624" style="height:100%;width:100%" class="logo-svg" overflow="visible" enable-background="new 0 -2 675 624"><style type="text/css"><![CDATA[
	.letters path {fill:#C4203B;}
	.letter-highlight path{fill:#FFFFFF;}
	.letter-outline path{fill:#000000;}
	.grate path {fill:#000000;}
]]></style><g class="grate"><path d="M121 101c-117 125-110 320 15 436s320 110 436-15 110-320-15-436-320-110-436 15zm435 406c-108 116-289 122-405 14s-122-289-14-405 289-122 405-14c115 108 122 290 14 405zM137 116l-6 7 419 391c2-2 4-4 6-7s4-5 6-7l-419-390-6 6zM299 29l332 310c1-8 1-16 1-23l-309-290-24 3zM625 245l-232-216c-10-2-20-3-30-3l267 249c-1-10-3-20-5-30zM203 63l401 374 8-17-392-366c-5 3-11 6-17 9zM164 90l415 388c4-5 7-10 10-15l-411-384-14 11zM248 42l373 348c2-7 4-13 5-20l-358-334c-6 2-13 4-20 6zM82 201l393 367 17-9-403-375-7 17zM104 159l411 384c5-4 10-7 14-11l-415-388c-4 5-7 10-10 15zM60 305l313 293 23-3-335-314c-1 8-1 16-1 24zM67 376l235 219c10 2 20 3 30 3l-269-251c0 9 2 19 4 29zM67 248l362 338c7-2 13-4 19-7l-376-351c-2 7-4 14-5 20zM103 463l109 102c16 8 32 15 48 20l-180-168c6 15 13 31 23 46zM587 156l-103-96c-16-9-32-16-49-21l177 165c-7-16-15-32-25-48z"/></g><g class="letter-outline"><path d="M622 149l-29-29 10-11c7-8 12-15 14-23 1-4 2-7 2-10l-11 3-6-5c-4-3-7-7-9-11s-4-9-5-14c-2-11-1-21 4-30s14-16 24-18c13-3 26-1 36 8 9 8 16 19 19 33 4 18 2 36-5 53s-18 32-34 45l-10 9zm5-119h-4c-3 1-4 2-5 4s-2 4-1 9c0 1 0 2 1 2l20-5c-2-4-3-6-6-8-2-2-3-2-5-2zM46 196c-5 0-20-2-24-23l-1-4v-1l-3-28c-4 0-9-3-13-8l-1-1c-1-2-2-3-2-5-2-6-3-12 0-18 2-6 7-10 13-14-1-14 7-26 21-29l3-1c4-1 9-1 13 1 2-9 10-16 20-19l3-1 5-1c9 0 19 6 20 20v12l3-1 5-1h3c8 0 26 3 32 33 2 8 2 18 1 29l3 9c2 10-1 19-7 26l-2 2-1 1c-4 3-8 5-12 6l-5 1c-5 0-12-2-17-9-2 7-6 12-10 14l-1 1-1 1c-2 1-4 1-5 2-2 0-4 1-5 1-2 0-8-1-13-4-3 5-7 7-9 8h-2c-2 1-4 1-5 2-2-1-4-1-6-1zM152 172c-14 0-24-7-31-20-3-5-5-11-6-18-2-9-2-19-1-30v-2l1-2c5-14 11-24 19-29s10-6 12-7c15-4 29-1 40 8 4 3 6 8 9 17s3 18-1 27l-3 6c7 9 7 21-1 29-5 7-13 13-23 16-1 0-2 1-4 1-3 3-7 4-11 4zM53 479c-5 0-10-2-14-5l-1-1-1-1c-13-11-18-26-14-42 1-11 8-22 21-34 7-6 16-11 29-13-22-3-48-17-53-71-3-41 15-76 54-104l1-1h1c10-6 19-8 27-8 6 0 11 2 16 4l2-1c4-2 8-4 12-4 6 0 17 3 23 21 2 8 4 18 5 32l14 111 4 51c4 25-11 38-26 41l-3 1-3-1c-12-2-22-3-32-3-14 0-33 2-38 13l-1 2-2 2c-8 10-15 11-21 11zm4-44v3c13-12 32-18 58-18 9 0 19 1 30 2v-5l-19-1c-7-1-13-1-19-1-29 0-37 5-39 7-9 9-11 13-11 13zm83-74l3 35-2-29-1-6zm-34 21h2v-2c-1 1-2 1-4 2h2zm-51-65c4 32 18 34 23 35h6c5 0 9-1 12-2-3 1-7 2-10 2-9 0-18-5-23-14-4-6-7-13-8-21zm43-41c-5 5-9 11-11 19s-2 15 2 21c3-2 7-6 12-12l-3-28zm20-33c3 2 6 5 8 9-1-5-1-10-2-13l-6 4zm-24-6c-7 5-12 10-17 15 2-2 5-4 7-5 7-5 14-7 21-7h2l-4-6c-2-1-5 0-9 3zM182 363c-7 0-25-3-30-30l-1-4-4-101c-4-24 7-41 30-47l5-2 6-1c4 0 8 1 11 3 8-5 19-9 32-12l4-1c6 0 12 2 23 9l1 1 1 1c5 4 8 9 9 15 2 8 0 17-5 28-8 18-21 21-28 21-3 0-6-1-9-2-7 8-13 29-13 72 3 21-2 36-15 44l-1 1-1 1c-3 1-5 2-8 2-2 1-4 2-7 2zm6-151l-1 1h-2c-5 1-7 2-6 10v1l2 55c2-25 9-50 24-63l-17-4zm-6-1c2 1 3 1 5 1h1l-6-1zm51-8c-8 2-13 4-17 6l5-2 8-2 5 3c1-2 2-4 2-5-2 1-2 0-3 0zM273 171c-19 0-33-11-37-29-1-2-1-4-1-6-2-22 7-38 26-44 4-2 8-2 12-2 9 0 26 4 34 33 4 14 3 25-2 33-3 5-9 12-21 14l-6 1h-5zm-4-34s1 1 4 1h4c0-1 0-3-1-7-1-5-2-7-3-8-3 1-5 2-4 10v4zM286 340c-8 0-26-3-32-32v-2l-9-100c-5-24 6-41 29-47l5-2c2-1 4-1 6-1 11 0 22 7 23 23l2 27 9 83c4 28-7 40-18 46l-2 1c-3 1-5 2-8 2 0 1-3 2-5 2zm1-39v2c0-2 0-5-1-8v-1l-1-16 2 23zM344 326c-8 0-26-3-32-32v-3l-14-167c-5-24 6-41 29-47l5-2 6-1c11 0 22 7 23 23l8 94 9 83c4 28-7 40-18 46l-1 1c-3 1-5 2-8 2-2 3-4 3-7 3zm1-38v2c0-2 0-5-1-8v-1l-2-15 3 22zM403 314c-8 0-26-3-32-32v-1l-14-168c-5-24 6-41 29-47l5-2c2-1 4-1 6-1 11 0 22 7 23 23l8 94 9 83c4 28-7 40-18 46l-2 1c-3 1-5 2-8 2-2 1-4 2-6 2zm1-39v2c0-2 0-5-1-8v-1l-2-15 3 22zM461 301c-8 0-26-3-32-32v-2l-9-100c-5-24 6-41 29-47l5-2 6-1c11 0 22 7 23 23l2 27 9 83c4 28-7 40-18 46h-2c-3 1-5 2-8 2-1 2-3 3-5 3zm1-39v2c0-2 0-5-1-8v-1l-2-16 3 23zM448 132c-19 0-33-11-37-29-1-2-1-4-1-6-2-22 7-38 26-44 4-2 8-2 12-2 9 0 26 4 34 33 4 14 3 25-2 33-3 5-9 12-21 14l-6 1h-5zm-4-34s1 1 4 1h4c0-1 0-3-1-7-1-5-2-7-3-8-3 1-5 2-4 10v2c-1 2 0 2 0 2zM509 331l-1-42c-9-2-21-9-25-32v-1l-8-103c-4-24 7-41 30-47l5-2 6-1c7 0 14 3 19 10 9-10 20-17 33-20 3-1 5-1 8-1h5c17 0 39 9 47 52 3 16 4 35 3 60 3 6 5 12 6 18 3 14-1 28-10 38l-1 1-1 1c-5 5-11 8-16 9-2 1-4 1-6 1-17 0-28-14-33-41v-4c0-15 0-27-1-36-4 13-8 31-13 56v1c-5 18-12 29-23 36l-1 1-1 1c-3 1-5 2-8 2-1 0-2 1-4 1l-10 42zm92-104c1 4 2 7 2 9 0-2 1-4 0-6 0-2-1-5-2-8v5zm-30-96c6 0 11 2 15 7 2 2 5 6 7 12-2-11-6-23-14-23h-1c-2 0-3 0-4 1-4 1-8 3-11 5 2-1 5-2 8-2zM254 600c-9 0-26-4-32-32l-1-4v-1l-7-72h-2c-15 0-23-7-28-13l-1-1c-2-2-3-5-4-7v-1c-4-10-3-18-1-23 4-9 11-15 23-20 1-1 2-1 4-2l2-1-1-6c-2-8-1-15 0-21l1-9v-3l1-2c14-27 25-40 37-44 8-2 11-4 12-4 3-1 6-2 9-2 8 0 20 4 29 23 5 12 7 21 3 29-3 6-8 11-15 14l-2 1h-2s-1 0-2 1l-2 2-3 1c-2 1-4 1-5 2v1l7-1c9 0 24 3 34 23l2 3 1 1c4 9 2 16 0 20s-7 10-17 13l-9 3-11 4 9 77c4 28-7 40-18 46l-1 1c-3 1-5 2-8 2 2 2 0 2-2 2zm1-37v1c0-2 0-5-1-8v-1l-2-22 3 30zm-38-106c-1 0-2 1-2 1 2 0 5-1 8-2l10-3-16 4zm43-86c-1 0-4 3-9 11 5-4 10-7 16-8l3-2-2-3c-2-1-5 0-8 2zM342 581c-15 0-37-6-51-32-13-24-17-52-13-83 6-43 30-58 48-63 7-2 14-3 20-3 18 0 33 7 45 20 15 17 22 43 22 80 0 51-27 70-49 77-7 3-15 4-22 4zm-22-48s0 1 1 1c7 13 15 15 22 15 4 0 8-1 13-2 7-2 14-5 19-14-5 6-11 9-16 10-4 1-8 2-12 2-8 0-18-2-27-12zm25-59h-2s-2 3-2 9c-1 10 0 19 4 26 1 2 1 2 2 2 0 0 1 0 2-1 3-1 4-5 4-13 0-17-4-22-5-23h-3zm0-33c11 0 20 5 28 13l3 4c-2-8-5-12-8-16-5-6-12-9-20-9-4 0-8 1-12 2-7 2-16 6-21 21 6-10 14-13 20-15h10zM451 557c-15 0-37-6-51-32-13-24-17-52-13-83 6-43 30-58 48-63 7-2 14-3 20-3 18 0 33 7 45 20 15 17 22 43 22 80 0 51-27 70-49 77-7 3-15 4-22 4zm-22-49s0 1 1 1c7 13 15 15 22 15 4 0 8-1 13-2 7-2 14-5 19-14-5 6-11 9-16 10-4 1-8 2-12 2-8 1-18-1-27-12zm25-59h-2s-2 3-2 9c-1 10 0 19 4 26 1 2 1 2 2 2 0 0 1 0 2-1 3-1 4-5 4-13 0-17-4-22-5-23h-3zm0-33c11 0 20 5 28 13l3 4c-2-8-5-12-8-16-5-6-12-9-20-9-4 0-8 1-12 2-7 2-16 6-21 21 6-10 14-13 20-15 3 1 6 0 10 0zM544 536c-8 0-26-3-32-32v-2l-14-168c-5-24 6-41 29-47l5-2c2-1 4-1 6-1 11 0 22 7 23 23l8 94 9 83c4 28-7 40-18 46h-2c-3 1-5 2-8 2-2 3-4 4-6 4zm1-39v2c0-2 0-5-1-8v-1l-2-15 3 22zM601 527h-4c-14-1-25-9-28-22l-3-14v-2c0-8 4-26 32-30-26-4-43-20-48-44l-1-5c-5-34 37-58 69-73l6-3 6 2c13 5 22 14 25 26 2 6 1 13 0 20l-2 8-23 12c27 7 36 22 39 34 4 10 5 20 3 29-4 20-17 45-56 57l-15 5zm31-90c3 2 5 5 7 8v-1c-1-3-4-5-7-7zm-48-39c-2 3-2 5-2 7v2c2 8 5 15 16 18-8-5-14-11-15-22 1-2 1-3 1-5z"/></g><g class="letter-highlight"><path d="M32 168c2 7 5 11 10 9 1 0 2 0 2-1 4-2 6-7 5-15l-5-42v-3l12-4 5-2c2 0 3-1 3-2l3 51c1 7 5 11 9 9 1 0 2 0 2-1 3-2 5-7 4-14 4-31 9-47 16-47s9 13 9 39c2 10 5 15 10 14 2 0 3-1 5-3 3-3 4-8 3-12l-3-8c1-12 1-21-1-29-2-14-8-20-17-19-1 0-2 0-3 1-15 4-22 11-22 23l-2-48c0-3-2-5-5-4-1 0-1 0-2 1-8 2-11 7-9 15l2 30s0-1-1-1c-3-7-8-9-16-6l-4 1-2-17c0-3-2-5-5-4-1 0-1 0-2 1-6 1-9 6-7 14l1 11-8 2c-7 3-9 7-8 11 0 1 1 2 1 2 3 4 8 4 15 2h1l4 46zM172 140c3-3 3-6 0-10s-8-3-12 2c-9 7-14 7-17-1 6-1 12-4 19-9s11-10 13-14c2-5 2-10 0-15s-3-9-5-10c-7-6-15-8-25-5 0 0-3 2-8 5s-9 10-12 20c-1 10-1 18 1 26 1 5 2 9 5 14 5 10 13 13 23 10l3-1c6-4 11-7 15-12zm-32-29c1-7 4-12 8-15 8-4 13-2 15 8-8 8-16 13-23 14-1-2 0-5 0-7zM151 363l-14-111c-2-29-7-42-14-37l-12 8c-6-10-17-11-32-2-34 25-50 55-47 89 3 35 16 54 38 56 23 3 38-5 46-24l5 55c-36-2-60 1-70 11-11 10-16 18-16 24-3 11 0 19 8 26 4 3 9 2 13-3 11-20 39-26 87-19 11-2 15-10 13-23l-5-50zm-80-35c-8-12-9-25-6-38 4-14 11-24 21-31 11-7 17-6 21 4l4 46c-19 24-32 31-40 19zM191 314c-1-56 9-86 29-92 10 7 17 4 22-8 3-8 5-14 4-18-1-2-2-4-4-6-8-5-13-7-15-6-23 6-37 14-41 26l1-8c0-7-3-9-9-8l-3 1c-15 3-21 13-18 29l4 101v1c0 1 0 2 1 2 3 13 9 18 18 17 2 0 3-1 5-2 6-5 8-14 6-29zM277 171l-3 1c-15 3-21 13-18 29l9 101v1c3 14 9 21 19 19 2 0 3-1 5-2 8-5 11-14 9-29l-9-84-2-27c-2-7-5-10-10-9zM246 137c2 11 11 17 24 16 2 0 3-1 4-1 11-2 15-11 11-27-5-17-13-24-25-20s-17 14-15 28c1 1 1 2 1 4zM323 289v1c3 14 9 21 19 19 2 0 3-1 5-2 8-5 11-14 9-29l-9-84-8-94c-1-7-4-9-9-8l-3 1c-15 3-21 13-18 29l14 167zM381 276v1c3 14 9 21 19 19 2 0 3-1 5-2 8-5 11-14 9-29l-9-84-8-94c-1-7-4-9-9-8l-3 1c-15 3-21 13-18 29l14 167zM451 132l-3 1c-15 3-21 13-18 29l9 101v1c3 14 9 21 19 19 2 0 3-1 5-2 8-5 11-14 9-29l-9-84-2-27c-1-7-4-10-10-9zM421 98c2 11 11 17 24 16 2 0 3-1 4-1 11-2 15-11 11-27-5-17-13-24-25-20s-17 14-15 28l1 4zM493 251v1c3 14 9 21 18 19 2 0 3-1 5-2 7-4 12-13 15-26 14-64 25-97 34-97s13 27 13 81c4 20 11 29 20 27 3-1 6-2 9-5 6-7 8-15 6-24-1-5-3-11-6-17 1-25 0-45-3-60-5-27-16-40-34-38l-6 1c-24 5-40 28-48 69l-1-51c0-7-3-9-9-8l-3 1c-15 3-21 13-18 29l8 100zM288 449c6-2 8-5 6-11 0-1-1-2-2-3-6-14-17-18-32-12l-9 3-2-27c4-7 10-12 18-14 3-2 6-3 9-4 7-2 8-9 2-20-5-11-11-15-18-13-1 0-5 2-12 4-8 2-17 14-28 36-1 3-1 7-1 10-2 4-2 10 0 16l2 21-16 5h-1c-14 6-19 13-15 22 1 2 2 3 2 4 6 7 16 8 30 4l2-1 8 93v1c3 14 9 21 19 19 2 0 3-1 5-2 8-5 11-14 9-29l-9-84-1-6 23-8 11-4zM325 417c-20 5-32 21-36 49s0 52 11 73 29 28 54 21c25-8 37-28 37-61s-6-56-18-69-28-17-48-13zm22 108c-11 3-19 0-24-11-5-10-7-22-6-35s6-21 15-23 16 0 21 7 8 18 9 34-5 25-15 28zM434 393c-20 5-32 21-36 49s0 52 11 73 29 28 54 21c25-8 37-28 37-61s-6-56-18-69-28-18-48-13zm22 108c-11 3-19 0-24-11-5-10-7-22-6-35s6-21 15-23 16 0 21 7 8 18 9 34c0 15-5 24-15 28zM545 402l-8-94c-1-7-4-9-9-8l-3 1c-15 3-21 13-18 29l14 168v1c3 14 9 21 19 19 2 0 3-1 5-2 8-5 11-14 9-29l-9-85zM649 439c-3-13-14-21-33-24-27-9-28-18-2-27l20-11c1-5 1-9 0-13-2-7-6-12-14-15-42 20-62 38-59 56 0 1 0 2 1 4 5 20 18 31 41 32 24 8 23 18-3 32-14 1-21 6-21 15l3 12c1 6 5 9 13 9l14-5c25-7 40-22 45-44l-5-21zM618 127l-9-9c8-9 14-19 18-28 3-9 4-19 2-28 0-2-1-3-1-4s-1-2-1-2l-19 5c-3-2-5-5-6-8-2-3-3-6-3-9-2-7-1-14 2-20s8-9 15-11c8-2 16-1 23 5 7 5 11 14 14 25 3 15 2 30-4 44-7 15-17 28-31 40z"/></g><g class="letters"><path d="M27 165c2 7 5 11 10 9 1 0 2 0 2-1 4-2 6-7 5-15l-5-42v-3l12-4 5-2c2 0 3-1 3-2l3 51c1 7 5 11 9 9 1 0 2 0 2-1 3-2 5-7 4-14 4-31 9-47 16-47s9 13 9 39c2 10 5 15 10 14 2 0 3-1 5-3 3-3 4-8 3-12l-3-8c1-12 1-21-1-29-2-14-8-20-17-19-1 0-2 0-3 1-15 4-22 11-22 23l-2-48c0-3-2-5-5-4-1 0-1 0-2 1-8 2-11 7-9 15l2 30s0-1-1-1c-3-7-8-9-16-6l-5 2-2-17c0-3-2-5-5-4-1 0-1 0-2 1-8 2-11 7-9 14l1 11-8 2c-7 3-9 7-8 11 0 1 1 2 1 2 3 4 8 4 15 2h1l7 45zM167 137c3-3 3-6 0-10-4-4-8-3-13 2-9 7-14 7-17-1 6-1 12-4 19-9s11-10 13-14c2-5 2-10 0-15s-3-9-5-10c-7-6-15-8-25-5 0 0-3 2-8 5s-9 10-12 20c-1 10-1 18 1 26 1 5 2 9 5 14 5 10 13 13 23 10l3-1c7-4 12-7 16-12zm-33-29c1-7 4-12 8-15 8-4 13-2 15 8-8 8-16 13-23 14v-7zM146 360l-14-111c-2-29-7-42-14-37l-12 8c-6-10-17-11-32-2-35 25-51 54-48 89s16 54 38 56c23 3 38-5 46-24l5 55c-36-2-60 1-70 11-11 10-16 18-16 24-3 11 0 19 8 26 4 3 9 2 13-3 11-20 39-26 87-19 11-2 15-10 13-23l-4-50zm-80-35c-8-12-9-25-6-38 4-14 11-24 21-31 11-7 17-6 21 4l4 46c-19 24-33 31-40 19zM186 311c-1-56 9-86 29-92 10 7 17 4 22-8 3-8 5-14 4-18-1-2-2-4-4-6-8-5-13-7-15-6-23 6-37 14-41 26l1-8c0-7-3-9-9-8l-3 1c-15 3-21 13-18 29l4 101v1c0 1 0 2 1 2 3 13 9 18 18 17 2 0 3-1 5-2 5-5 8-14 6-29zM272 168l-3 1c-15 3-21 13-18 29l9 101v1c3 14 9 21 19 19 2 0 3-1 5-2 8-5 11-14 9-29l-9-84-2-27c-2-7-5-10-10-9zM241 134c2 11 11 17 24 16 2 0 3-1 4-1 11-2 15-11 11-27-5-17-13-24-25-20s-17 14-15 28c1 1 1 2 1 4zM318 286v1c3 14 9 21 19 19 2 0 3-1 5-2 8-5 11-14 9-29l-9-84-9-95c-1-7-4-9-9-8l-3 1c-15 3-21 13-18 29l15 168zM376 273v1c3 14 9 21 19 19 2 0 3-1 5-2 8-5 11-14 9-29l-10-85-8-94c-1-7-4-9-9-8l-3 1c-15 3-21 13-18 29l15 168zM446 129l-3 1c-15 3-21 13-18 29l9 101v1c3 14 9 21 19 19 2 0 3-1 5-2 8-5 11-14 9-29l-9-84-2-27c-1-7-4-10-10-9zM416 95c2 11 11 17 24 16 2 0 3-1 4-1 11-2 15-11 11-27-5-17-13-24-25-20s-17 14-15 28c0 1 0 3 1 4zM488 248v1c3 14 9 21 18 19 2 0 3-1 5-2 7-4 12-13 15-26 14-64 25-97 34-97s13 27 13 81c4 20 11 29 20 27 3-1 6-2 9-5 6-7 8-15 6-24-1-5-3-11-6-17 1-25 0-45-3-60-5-27-16-40-34-38l-6 1c-24 5-40 28-48 69l-1-51c0-7-3-9-9-8l-3 1c-15 3-21 13-18 29l8 100zM282 446c6-2 8-5 6-11 0-1-1-2-2-3-6-14-17-18-32-12l-9 3-2-27c4-7 10-12 18-14 3-2 6-3 9-4 7-2 8-9 2-20-5-11-11-15-18-13-1 0-5 2-12 4-8 2-17 14-28 36-1 3-1 7-1 10-2 4-2 10 0 16l2 21-16 5h-1c-14 6-19 13-15 22 1 2 2 3 2 4 6 7 16 8 30 4l2-1 8 93v1c3 14 9 21 19 19 2 0 3-1 5-2 8-5 11-14 9-29l-9-84-1-6 23-8 11-4zM320 414c-20 5-32 21-36 49s0 52 11 73 29 28 54 21c25-8 37-28 37-61s-6-56-18-69-28-17-48-13zm21 108c-11 3-19 0-24-11-5-10-7-22-6-35s6-21 15-23 16 0 21 7 8 18 9 34-4 25-15 28zM428 390c-20 5-32 21-36 49s0 52 11 73 29 28 54 21c25-8 37-28 37-61s-6-56-18-69-27-18-48-13zm22 108c-11 3-19 0-24-11-5-10-7-22-6-35s6-21 15-23 16 0 21 7 8 18 9 34c1 15-4 24-15 28zM540 399l-8-94c-1-7-4-9-9-8l-3 1c-15 3-21 13-18 29l14 168v1c3 14 9 21 19 19 2 0 3-1 5-2 8-5 11-14 9-29l-9-85zM643 436c-3-13-14-21-33-24-27-9-28-18-2-27l20-11c1-5 1-9 0-13-2-7-6-12-14-15-42 20-62 38-59 56 0 1 0 2 1 4 5 20 18 31 41 32 24 8 23 18-3 32-14 1-21 6-21 15l3 12c1 6 5 9 13 9l14-5c25-7 40-22 45-44-1-7-2-14-5-21zM613 124l-9-9c8-9 14-19 18-28 3-9 4-19 2-28 0-2-1-3-1-4s-1-2-1-2l-19 5c-3-2-5-5-6-8-2-3-3-6-3-9-2-7-1-14 2-20s8-9 15-11c8-2 16-1 23 5 7 5 11 14 14 25 3 15 2 30-4 44-8 15-17 28-31 40z"/></g></svg>