<svg version="1.1"
	 xmlns="http://www.w3.org/2000/svg" xmlns:xlink="http://www.w3.org/1999/xlink" xmlns:a="http://ns.adobe.com/AdobeSVGViewerExtensions/3.0/"
	 x="0px" y="0px" width="225px" height="208px" viewBox="0 -0.8 225 208"
	 style="overflow:visible;enable-background:new 0 -0.8 225 208;height: 100%;width: 100%;" xml:space="preserve">
<style type="text/css">
<![CDATA[
	.letters path {fill:#C4203B;}
	.letter-highlight path{fill:#FFFFFF;}
	.letter-outline path{fill:#000000;}
	.grate path {fill:#000000;}
]]>
</style>
<defs>
</defs>
<g class="grate">
	<path d="M40.2,33.7C1.4,75.2,3.7,140.3,45.2,179c41.5,38.8,106.6,36.5,145.4-5c38.8-41.5,36.5-106.6-5-145.4S78.9-7.9,40.2,33.7z
		 M185.2,169c-36,38.6-96.4,40.6-135,4.6c-38.6-36-40.6-96.4-4.6-135S142-2,180.5,34C219.1,70,221.2,130.5,185.2,169z"/>
	<path d="M45.5,38.7c-0.7,0.7-1.4,1.5-2,2.2l139.6,130.3c0.7-0.7,1.4-1.4,2.1-2.2s1.4-1.5,2-2.2L47.6,36.5
		C46.9,37.2,46.2,37.9,45.5,38.7z"/>
	<path d="M99.8,9.6l110.6,103.3c0.2-2.6,0.4-5.2,0.4-7.8L107.6,8.7C105,8.9,102.4,9.2,99.8,9.6z"/>
	<path d="M208.3,81.7L131.1,9.6c-3.3-0.5-6.7-0.9-10-1.1l89,83.1C209.6,88.3,209,85,208.3,81.7z"/>
	<path d="M67.8,21l133.5,124.6c0.9-1.9,1.8-3.8,2.6-5.8L73.4,18C71.5,18.9,69.7,19.9,67.8,21z"/>
	<path d="M54.6,30.1l138.4,129.3c1.2-1.7,2.3-3.3,3.4-5.1L59.4,26.4C57.8,27.6,56.2,28.8,54.6,30.1z"/>
	<path d="M82.8,14l124.4,116.1c0.6-2.2,1.2-4.4,1.6-6.7L89.4,11.9C87.2,12.5,85,13.3,82.8,14z"/>
	<path d="M27.2,67.1l130.9,122.2c1.9-0.9,3.7-1.9,5.6-3L29.8,61.3C28.9,63.2,28,65.1,27.2,67.1z"/>
	<path d="M34.5,53l137.1,128c1.6-1.2,3.2-2.4,4.8-3.7L37.9,47.9C36.7,49.6,35.6,51.3,34.5,53z"/>
	<path d="M19.9,101.5l104.4,97.5c2.6-0.2,5.1-0.6,7.7-1L20.4,93.7C20.1,96.3,19.9,98.9,19.9,101.5z"/>
	<path d="M22.3,125.2l78.2,73c3.3,0.5,6.6,0.9,9.9,1l-89.8-83.8C21,118.7,21.5,121.9,22.3,125.2z"/>
	<path d="M22.2,82.7l120.6,112.6c2.2-0.6,4.3-1.4,6.4-2.2L23.9,76.1C23.3,78.3,22.7,80.5,22.2,82.7z"/>
	<path d="M34.2,154.3l36.4,34c5.2,2.7,10.5,5,16,6.7l-60.1-56.1C28.6,144.1,31.1,149.3,34.2,154.3z"/>
	<path d="M195.7,52.1l-34.2-31.9c-5.3-2.9-10.8-5.3-16.4-7.1l58.9,55C201.7,62.5,198.9,57.2,195.7,52.1z"/>
</g>
<g class="letter-outline">
	<path d="M207.2,49.5l-9.6-9.6l3.2-3.5c2.3-2.6,4-5.1,4.8-7.5c0.4-1.2,0.6-2.3,0.7-3.4l-3.6,0.9l-2-1.7c-1.3-1.1-2.3-2.3-3.1-3.6
		c-0.8-1.4-1.4-2.9-1.8-4.5c-0.8-3.6-0.3-7,1.3-9.9c1.7-3.1,4.5-5.2,8-6.1c4.3-1.1,8.5-0.2,11.9,2.5c3.1,2.5,5.2,6.2,6.2,11
		c1.3,6,0.8,11.9-1.5,17.6c-2.2,5.5-5.9,10.6-11.2,15L207.2,49.5z M209.1,10c-0.4,0-0.8,0-1.3,0.1c-1,0.3-1.4,0.7-1.7,1.3
		c-0.3,0.5-0.6,1.4-0.3,3c0.1,0.3,0.1,0.6,0.2,0.8l6.8-1.7c-0.5-1.2-1.1-2.1-1.9-2.7C210.1,10.1,209.5,10,209.1,10z"/>
	<path d="M15.4,65.4L15.4,65.4c-1.5,0-6.5-0.5-8-7.5l-0.3-1.3l0.1-0.4l-0.9-9.3C4.6,46.5,3,45.5,1.8,44l-0.3-0.3
		c-0.3-0.5-0.6-1-0.8-1.5L0.6,42c-0.8-2-0.9-4.1-0.1-5.9c0.8-1.9,2.3-3.4,4.4-4.5c-0.4-4.7,2.2-8.5,6.9-9.8c0.3-0.1,0.7-0.2,1-0.3
		c1.4-0.3,2.9-0.2,4.3,0.4c0.8-3.1,3.2-5.3,6.7-6.3c0.3-0.1,0.7-0.2,1-0.3c0.5-0.1,1.1-0.2,1.6-0.2c3,0,6.3,2,6.6,6.5l0,0.2l0.1,3.5
		c0.3-0.1,0.6-0.2,0.9-0.2l0.1,0c0.5-0.1,1.1-0.2,1.6-0.3l0,0c0.3,0,0.7-0.1,1-0.1c2.6,0,8.7,1.1,10.6,11c0.5,2.7,0.6,5.9,0.4,9.6
		c0.4,1,0.7,2,0.9,2.9c0.6,3.2-0.2,6.4-2.4,8.7L46,57.5l-0.3,0.2c-1.2,1-2.6,1.7-3.9,2c-0.5,0.1-1.1,0.2-1.6,0.2
		c-1.6,0-3.9-0.5-5.8-2.9c-0.7,2.4-2.1,3.9-3.4,4.7l-0.4,0.2l-0.4,0.2c-0.6,0.3-1.2,0.4-1.7,0.6c-0.6,0.1-1.2,0.2-1.8,0.2
		c-0.8,0-2.6-0.2-4.3-1.3c-1,1.5-2.3,2.4-3.1,2.8l-0.2,0.1l-0.2,0.1c-0.6,0.3-1.2,0.4-1.7,0.6C16.6,65.3,16,65.4,15.4,65.4z"/>
	<path d="M50.7,57.2L50.7,57.2c-4.5,0-8.1-2.4-10.2-6.7c-0.9-1.8-1.6-3.8-2-5.9c-0.5-2.9-0.6-6.3-0.2-10l0.1-0.5l0.2-0.5
		c1.5-4.8,3.6-8,6.4-9.8c2.6-1.6,3.2-2,4.1-2.2c5-1.4,9.7-0.4,13.2,2.8c1.3,1.1,2.1,2.6,3.1,5.6c1,3,0.9,6.1-0.3,9
		c-0.3,0.7-0.7,1.4-1.1,2.1c2.3,3.1,2.2,7-0.4,9.8c-1.8,2.4-4.4,4.3-7.6,5.4l-0.1,0c-0.4,0.1-0.8,0.3-1.2,0.4
		C53.3,56.9,52,57.2,50.7,57.2z"/>
	<path d="M17.8,159.7c-1.6,0-3.3-0.5-4.7-1.5l-0.3-0.2l-0.2-0.2c-4.3-3.7-5.9-8.6-4.6-13.9c0.4-3.6,2.6-7.2,7.1-11.3
		c2.3-2.1,5.4-3.5,9.5-4.3c0,0-0.1,0-0.1,0c-7.2-0.9-16.1-5.8-17.5-23.8c-1.1-13.6,4.9-25.2,17.9-34.7l0.2-0.2l0.2-0.1
		c3.3-1.9,6.2-2.8,8.9-2.8c1.9,0,3.7,0.5,5.2,1.3l0.5-0.3c1.2-0.8,2.6-1.2,3.9-1.2c2.1,0,5.8,0.9,7.6,7.1c0.7,2.5,1.2,5.9,1.6,10.5
		l4.6,37.1l1.4,17c1.2,8.3-3.5,12.5-8.5,13.6l-1,0.2l-1-0.2c-3.9-0.6-7.4-0.9-10.5-0.9c-4.8,0-10.9,0.7-12.7,4.3l-0.4,0.7l-0.5,0.6
		C22,159.2,19.5,159.7,17.8,159.7z M18.9,145.1l0,0.6l-0.1,0.3c4.2-4,10.7-6.1,19.4-6.1c3,0,6.4,0.2,10.1,0.7c0-0.2,0-0.5-0.1-0.9
		l-0.1-0.7l-6.4-0.4c-2.3-0.2-4.4-0.2-6.4-0.2c-9.6,0-12.3,1.8-12.9,2.4C19.5,143.5,19,144.9,18.9,145.1z M46.5,120.3l1.1,11.7
		l-0.8-9.8L46.5,120.3z M35.4,127.4c0.2,0,0.5,0,0.7,0l0-0.5c-0.4,0.2-0.8,0.3-1.2,0.5C35,127.4,35.2,127.4,35.4,127.4z M18.2,105.8
		c1.4,10.8,5.9,11.3,7.7,11.6c0.7,0.1,1.5,0.1,2.1,0.1c1.6,0,3-0.3,4.1-0.8c-1.1,0.4-2.2,0.6-3.3,0.6c-3.1,0-5.9-1.6-7.7-4.5
		C19.7,110.6,18.7,108.2,18.2,105.8z M32.8,92.1c-1.7,1.5-2.9,3.6-3.6,6.4c-0.7,2.6-0.5,4.9,0.5,7.1c0.9-0.7,2.2-1.9,4-4L32.8,92.1z
		 M39.3,81.1c1,0.7,2,1.6,2.8,3c-0.2-1.8-0.3-3.3-0.5-4.4L39.3,81.1z M31.2,78.9c-2.2,1.6-4.1,3.2-5.7,5c0.7-0.6,1.5-1.2,2.3-1.8
		c2.4-1.6,4.6-2.4,6.9-2.4c0.2,0,0.5,0,0.7,0l-1.2-2C33.7,77.8,32.8,78,31.2,78.9z"/>
	<path d="M60.7,120.9L60.7,120.9c-2.4,0-8.2-1-10.1-9.9l-0.3-1.4l-1.4-33.6c-1.3-7.9,2.4-13.6,9.9-15.5c0.5-0.2,1-0.3,1.5-0.5
		c0.7-0.1,1.3-0.2,2-0.2c1.2,0,2.5,0.3,3.7,0.9c2.8-1.6,6.3-2.9,10.5-4l0.1,0c0.4-0.1,0.9-0.2,1.4-0.2c1.9,0,4,0.8,7.5,2.9l0.4,0.2
		l0.4,0.3c1.5,1.3,2.6,3,3,4.9c0.6,2.7,0.1,5.8-1.6,9.4c-2.7,6-6.9,6.9-9.2,6.9c-1,0-2-0.2-3-0.5c-2.3,2.5-4.4,9.7-4.2,24
		c0.9,7.1-0.8,12-4.9,14.6l-0.4,0.2l-0.4,0.2c-0.9,0.4-1.7,0.7-2.5,0.8C62.3,120.8,61.5,120.9,60.7,120.9z M62.6,70.7l-0.4,0.2
		L61.7,71c-1.8,0.4-2.4,0.5-1.9,3.3l0.1,0.4l0.7,18.2c0.8-8.3,2.9-16.5,8-20.9L62.6,70.7z M60.7,70.3c0.5,0.2,1,0.4,1.6,0.4
		c0.1,0,0.2,0,0.2,0L60.7,70.3z M77.7,67.7c-2.5,0.7-4.4,1.4-5.7,2.1c0.5-0.2,1.1-0.4,1.7-0.6l2.5-0.7l1.5,1c0.3-0.7,0.5-1.2,0.6-1.5
		C78.1,67.9,77.9,67.8,77.7,67.7z"/>
	<path d="M91,57L91,57c-6.4,0-11-3.6-12.3-9.6c-0.2-0.7-0.2-1.4-0.3-2c-0.8-7.2,2.4-12.6,8.7-14.8c1.4-0.5,2.7-0.7,4-0.7
		c3.1,0,8.8,1.4,11.4,10.9c1.2,4.5,0.9,8.2-0.8,11.1c-1,1.7-3.1,3.9-6.9,4.7c-0.6,0.1-1.2,0.2-1.9,0.3l-0.3,0
		C92.1,56.9,91.6,57,91,57z M89.7,45.7c0,0,0.3,0.2,1.3,0.2h0c0.2,0,0.3,0,0.5,0c0.2,0,0.5-0.1,0.7-0.1c0-0.4-0.1-1.1-0.4-2.2
		c-0.4-1.5-0.8-2.3-1.1-2.7c-1,0.4-1.8,0.6-1.4,3.4l0,0.4c0,0.1,0,0.2,0,0.3C89.6,45.6,89.7,45.7,89.7,45.7L89.7,45.7z"/>
	<path d="M95.4,113.2L95.4,113.2c-2.5,0-8.5-1-10.5-10.7l-0.1-0.4l0-0.4l-2.9-33.3c-1.5-8,2.1-13.8,9.7-15.7c0.5-0.2,1-0.3,1.5-0.5
		c0.7-0.2,1.4-0.2,2-0.2c3.5,0,7.2,2.4,7.7,7.8l0.7,9l3.1,27.8c1.4,9.2-2.4,13.4-5.9,15.2l-0.5,0.2c-0.9,0.4-1.7,0.7-2.5,0.8
		C96.9,113.1,96.1,113.2,95.4,113.2z M95.7,100.3c0,0.2,0.1,0.3,0.1,0.5c0-0.6,0-1.5-0.2-2.7l0-0.2L95,92.6L95.7,100.3z"/>
	<path d="M114.8,108.8L114.8,108.8c-2.5,0-8.5-1-10.5-10.7l-0.1-0.5l0-0.4l-4.8-55.7c-1.5-8,2.1-13.8,9.7-15.7c0.5-0.2,1-0.3,1.5-0.5
		c0.7-0.1,1.3-0.2,2-0.2c3.5,0,7.2,2.4,7.7,7.8l2.6,31.4l3.1,27.8c1.4,9.2-2.4,13.4-5.9,15.2l-0.4,0.2c-0.9,0.4-1.7,0.7-2.5,0.8
		C116.3,108.8,115.5,108.8,114.8,108.8z M115.1,96c0,0.2,0.1,0.3,0.1,0.5c0-0.6,0-1.5-0.2-2.7l0-0.2l-0.5-4.9L115.1,96z"/>
	<path d="M134.2,104.5L134.2,104.5c-2.5,0-8.5-1-10.5-10.7l-0.1-0.4l-4.8-56.1c-1.5-8,2.1-13.8,9.7-15.7c0.5-0.2,1-0.3,1.5-0.5
		c0.7-0.2,1.3-0.2,2-0.2c3.5,0,7.2,2.4,7.7,7.8l2.6,31.4l3.1,27.8c1.4,9.2-2.4,13.4-5.9,15.2l-0.5,0.2c-0.9,0.4-1.7,0.6-2.5,0.8
		C135.7,104.4,134.9,104.5,134.2,104.5z M134.5,91.7c0,0.2,0.1,0.3,0.1,0.5c0-0.6,0-1.5-0.2-2.7l0-0.2l-0.6-4.9L134.5,91.7z"/>
	<path d="M153.6,100.2L153.6,100.2c-2.5,0-8.5-1-10.5-10.7l-0.1-0.4l0-0.4l-2.9-33.3c-1.5-8,2.1-13.8,9.7-15.7c0.5-0.2,1-0.3,1.5-0.5
		c0.7-0.1,1.3-0.2,2-0.2c3.5,0,7.2,2.4,7.7,7.8l0.7,9l3.1,27.8c1.4,9.2-2.4,13.4-5.9,15.2l-0.2,0.1l-0.2,0.1
		c-0.9,0.4-1.7,0.7-2.5,0.8C155.1,100.1,154.3,100.2,153.6,100.2z M153.9,87.4c0,0.2,0.1,0.3,0.1,0.5c0-0.6,0-1.5-0.2-2.7l0-0.2
		l-0.6-5.3L153.9,87.4z"/>
	<path d="M149.3,44L149.3,44c-6.4,0-11-3.6-12.3-9.6c-0.2-0.7-0.2-1.4-0.3-2c-0.8-7.2,2.4-12.6,8.7-14.8c1.4-0.5,2.7-0.7,4-0.7
		c3.1,0,8.8,1.4,11.4,10.9c1.2,4.5,0.9,8.2-0.8,11.1c-1,1.7-3.1,3.9-6.9,4.7c-0.6,0.1-1.2,0.3-1.9,0.3l-0.3,0
		C150.3,44,149.8,44,149.3,44z M147.9,32.8c0,0,0.3,0.2,1.3,0.2l0,0c0.2,0,0.3,0,0.5,0c0.2,0,0.5-0.1,0.7-0.1c0-0.4-0.1-1.1-0.4-2.2
		c-0.4-1.5-0.8-2.3-1.1-2.7c-1,0.4-1.8,0.6-1.4,3.4l0,0.4c0,0.1,0,0.2,0,0.3C147.8,32.6,147.9,32.8,147.9,32.8L147.9,32.8z"/>
	<path d="M169.6,110.2l-0.3-14.1c-2.9-0.6-6.9-2.9-8.3-10.5l-0.1-0.4L158.2,51c-1.3-7.9,2.4-13.7,9.9-15.6c0.5-0.2,1-0.3,1.5-0.5
		c0.7-0.1,1.3-0.2,2-0.2c2.4,0,4.8,1.1,6.3,3.4c3.1-3.4,6.8-5.5,11.1-6.5c0.9-0.2,1.7-0.3,2.6-0.4l0.1,0c0.5-0.1,1-0.1,1.5-0.1
		c5.7,0,13,3,15.6,17.4c1,5.3,1.3,11.8,1,19.9c1,2.1,1.6,4,2,5.9c0.9,4.8-0.3,9.3-3.4,12.8l-0.3,0.3l-0.3,0.2
		c-1.8,1.5-3.6,2.5-5.4,2.9c-0.7,0.2-1.3,0.2-2,0.2c-5.6,0-9.3-4.6-11.1-13.6l-0.1-0.5l0-0.5c0-5-0.1-8.9-0.2-12
		c-1.2,4.2-2.7,10.2-4.4,18.5l-0.1,0.3c-1.6,5.9-4.1,9.8-7.5,11.9l-0.4,0.2l-0.4,0.2c-0.9,0.4-1.7,0.6-2.5,0.8
		c-0.4,0.1-0.8,0.2-1.2,0.2L169.6,110.2z M200.2,75.6c0.3,1.2,0.5,2.2,0.8,2.9c0.1-0.5,0.2-1.2,0-2.1c-0.1-0.8-0.4-1.6-0.8-2.5
		C200.2,74.4,200.2,75,200.2,75.6z M190.4,43.6c1.9,0,3.7,0.8,5.1,2.2c0.8,0.8,1.7,1.9,2.4,4c-0.7-3.6-2.1-7.6-4.7-7.6
		c-0.1,0-0.3,0-0.4,0c-0.5,0-0.9,0.1-1.4,0.2c-1.3,0.3-2.6,0.9-3.7,1.7c0.8-0.3,1.6-0.5,2.5-0.5L190.4,43.6z"/>
	<path d="M84.6,200L84.6,200c-3.1,0-8.5-1.4-10.5-10.7l-0.3-1.2l0.1-0.4l-2.2-23.9c-0.2,0-0.4,0-0.6,0c-4.9,0-7.7-2.3-9.3-4.2
		l-0.3-0.4c-0.5-0.7-0.9-1.5-1.3-2.2l-0.1-0.2c-1.4-3.2-0.9-5.9-0.2-7.6c1.2-2.9,3.7-5.1,7.6-6.8c0.4-0.2,0.8-0.4,1.2-0.5l0.8-0.2
		l-0.2-2.1c-0.5-2.6-0.4-5,0.1-7.1c0.1-1,0.2-2.1,0.3-3.1l0.1-0.9l0.4-0.8c4.5-9,8.2-13.4,12.4-14.7c2.6-0.8,3.7-1.2,4.1-1.3
		c0.9-0.3,1.9-0.5,2.9-0.5c2.8,0,6.7,1.3,9.7,7.7c1.8,3.9,2.2,7.1,1,9.8c-0.9,2.1-2.7,3.7-5,4.5l-0.5,0.2l-0.5,0.1
		c-0.1,0-0.4,0.1-0.7,0.3l-0.8,0.6l-1,0.2c-0.7,0.2-1.2,0.4-1.6,0.8l0,0.3c0.8-0.1,1.5-0.2,2.2-0.2c2.9,0,8.1,1,11.2,7.8
		c0.2,0.4,0.4,0.7,0.6,1.1l0.2,0.3c1.2,2.9,0.7,5.2,0,6.6c-0.7,1.4-2.2,3.4-5.6,4.3l-3,0.9l-3.5,1.2l2.9,25.6
		c1.4,9.2-2.4,13.4-5.9,15.2l-0.4,0.2c-0.9,0.4-1.7,0.7-2.5,0.8C86.1,199.9,85.4,200,84.6,200z M84.9,187.5c0,0.1,0,0.2,0.1,0.3
		c0.1-0.6,0-1.5-0.2-2.8l0-0.2l-0.8-7.4l0.9,10C84.9,187.5,84.9,187.5,84.9,187.5z M72.4,152.4L72.4,152.4c-0.3,0.1-0.5,0.2-0.7,0.3
		c0.6-0.1,1.5-0.2,2.7-0.6l3.2-1.1L72.4,152.4z M86.5,123.5c-0.2,0.1-1.2,0.9-2.9,3.5c1.5-1.3,3.2-2.2,5.2-2.8c0.3-0.2,0.7-0.4,1-0.5
		c-0.2-0.4-0.4-0.8-0.5-1C88.7,122.8,87.8,123.1,86.5,123.5z"/>
	<path d="M114,193.7L114,193.7c-5.1,0-12.2-1.9-16.9-10.8c-4.3-8.1-5.7-17.3-4.3-27.6c1.9-14.4,9.9-19.3,16.1-20.9
		c2.3-0.6,4.5-0.9,6.6-0.9c5.9,0,11,2.3,14.9,6.6c5,5.5,7.4,14.3,7.4,26.8c0,17.1-8.9,23.3-16.4,25.5
		C118.9,193.3,116.4,193.7,114,193.7z M106.7,177.5c0.1,0.1,0.1,0.2,0.2,0.3c2.3,4.3,4.9,4.9,7.2,4.9l0,0c1.3,0,2.8-0.2,4.4-0.7
		c2.2-0.7,4.5-1.8,6.2-4.5c-1.8,1.9-3.8,2.9-5.4,3.4c-1.4,0.4-2.7,0.6-4,0.6C113.1,181.5,109.6,180.9,106.7,177.5z M114.9,157.9
		c-0.1,0-0.4,0-0.7,0.1c0,0-0.1,0-0.1,0c-0.1,0.1-0.6,0.9-0.8,2.9c-0.3,3.4,0.1,6.3,1.3,8.8c0.2,0.5,0.4,0.7,0.5,0.8
		c0.1,0,0.3,0,0.8-0.2c0.9-0.3,1.3-1.7,1.2-4.2c-0.1-5.6-1.3-7.4-1.6-7.8C115.3,157.9,115.1,157.9,114.9,157.9z M114.9,146.9
		c3.6,0,6.8,1.5,9.2,4.4c0.4,0.4,0.7,0.9,1,1.4c-0.8-2.5-1.8-4.1-2.8-5.2c-1.8-2-4-3-6.8-3c-1.2,0-2.5,0.2-4,0.5
		c-2.2,0.6-5.2,1.9-6.9,7.1c2-3.2,4.8-4.4,6.8-4.9C112.7,147,113.8,146.9,114.9,146.9z"/>
	<path d="M150.3,185.7L150.3,185.7c-5.1,0-12.2-1.9-16.9-10.8c-4.3-8-5.7-17.3-4.3-27.6c1.9-14.4,9.9-19.3,16.1-20.9
		c2.3-0.6,4.5-0.9,6.6-0.9c5.9,0,11,2.3,14.9,6.6c5,5.5,7.4,14.3,7.4,26.8c0,17.1-8.9,23.3-16.4,25.5
		C155.2,185.3,152.7,185.7,150.3,185.7z M143,169.4c0.1,0.1,0.1,0.2,0.2,0.3c2.3,4.3,4.9,4.9,7.2,4.9c0,0,0,0,0,0
		c1.3,0,2.8-0.2,4.4-0.7c2.2-0.7,4.5-1.8,6.2-4.5c-1.8,1.9-3.8,2.9-5.4,3.4c-1.4,0.4-2.7,0.6-4,0.6
		C149.4,173.5,145.9,172.9,143,169.4z M151.2,149.8c-0.1,0-0.4,0-0.7,0.1c0,0-0.1,0-0.1,0c-0.1,0.1-0.6,0.9-0.8,2.9
		c-0.3,3.4,0.1,6.3,1.4,8.8c0.2,0.5,0.4,0.7,0.5,0.8c0.1,0,0.4,0,0.8-0.2c0.9-0.3,1.3-1.7,1.2-4.2c-0.1-5.6-1.3-7.4-1.6-7.8
		C151.5,149.8,151.4,149.8,151.2,149.8z M151.2,138.8c3.6,0,6.8,1.5,9.2,4.4c0.4,0.4,0.7,0.9,1,1.4c-0.8-2.5-1.8-4.1-2.8-5.2
		c-1.8-2-4-3-6.8-3c-1.2,0-2.5,0.2-4,0.5c-2.2,0.6-5.2,1.9-6.9,7.1c2-3.2,4.8-4.4,6.8-4.9C149,139,150.1,138.8,151.2,138.8z"/>
	<path d="M181.3,178.5L181.3,178.5c-2.5,0-8.5-1-10.5-10.7l-0.1-0.5l-4.8-56c-1.5-8,2.1-13.8,9.7-15.7c0.5-0.2,1-0.3,1.5-0.5
		c0.7-0.2,1.3-0.2,2-0.2c3.5,0,7.2,2.4,7.7,7.8l2.6,31.4l3.1,27.8c1.4,9.2-2.4,13.4-5.9,15.2l-0.2,0.1l-0.2,0.1
		c-0.9,0.4-1.7,0.7-2.5,0.8C182.8,178.4,182,178.5,181.3,178.5z M181.6,165.7c0,0.2,0.1,0.3,0.1,0.5c0-0.6,0-1.5-0.2-2.7l0-0.2
		l-0.5-4.9L181.6,165.7z"/>
	<path d="M200.3,175.7l-1.2-0.1c-4.8-0.3-8.3-3-9.2-7.3l-1-4.7l0-0.7c0.1-2.6,1.4-8.7,10.5-10.1c-8.6-1.4-14.2-6.6-16-14.8
		c-0.1-0.5-0.2-1.1-0.3-1.7c-1.5-11.4,12.4-19.4,22.9-24.4l2-1l2.1,0.8c4.4,1.6,7.4,4.7,8.3,8.8c0.5,2.1,0.4,4.3-0.1,6.8l-0.5,2.5
		l-7.5,4.1c8.9,2.2,12.1,7.2,13.1,11.3c1.3,3.3,1.6,6.5,1,9.5c-1.3,6.5-5.7,15-18.6,18.9L200.3,175.7z M210.6,145.6
		c0.9,0.8,1.7,1.7,2.3,2.8l-0.1-0.3C212.6,147.1,211.8,146.3,210.6,145.6z M194.8,132.8c-0.6,0.9-0.8,1.7-0.8,2.2
		c0,0.3,0.1,0.5,0.1,0.7c0.6,2.5,1.7,4.9,5.4,6c-2.6-1.5-4.8-3.8-4.9-7.2C194.6,133.8,194.7,133.3,194.8,132.8z"/>
</g>
<g class="letter-highlight">
	<path d="M10.8,56c0.5,2.4,1.6,3.5,3.2,3.1c0.2-0.1,0.5-0.1,0.8-0.3c1.4-0.8,1.9-2.4,1.5-4.9l-1.6-14.1l-0.1-1l3.9-1.3
		l1.6-0.5c0.5-0.1,0.9-0.4,1-0.6l1.1,17c0,0,0,0,0,0.1c0.4,2.4,1.5,3.5,3.1,3.1c0.2-0.1,0.5-0.1,0.8-0.3c1.1-0.7,1.5-2.3,1.2-4.8
		c1.3-10.3,3.1-15.5,5.2-15.6c2.2-0.1,3.1,4.3,2.9,13.1c0.7,3.4,1.7,4.9,3.3,4.6c0.5-0.1,1-0.4,1.6-0.9c1-1.1,1.4-2.5,1.1-4.1
		c-0.2-0.9-0.5-1.8-1.1-2.8c0.3-3.9,0.3-7.1-0.2-9.7c-0.8-4.6-2.7-6.7-5.6-6.4c-0.3,0-0.7,0.1-1,0.2c-4.9,1.2-7.3,3.7-7.3,7.5
		l-0.5-16c-0.1-1.1-0.6-1.5-1.5-1.3c-0.2,0-0.3,0.1-0.5,0.2c-2.5,0.6-3.6,2.2-3.1,4.9l0.6,10c-0.1-0.1-0.1-0.2-0.2-0.3
		c-1-2.4-2.8-3.1-5.3-2L14,33.3l-0.5-5.7c-0.1-1.1-0.6-1.5-1.5-1.3c-0.2,0-0.3,0.1-0.5,0.2C9,27,8,28.6,8.5,31.3l0.3,3.5l-2.6,0.7
		c0,0,0,0-0.1,0c-2.3,0.9-3.1,2.2-2.5,3.7c0.1,0.2,0.2,0.5,0.4,0.7c1,1.2,2.7,1.4,5,0.6l0.2-0.1L10.8,56C10.8,56,10.8,56,10.8,56z"/>
	<path d="M57.3,46.5c1-1,1-2.1-0.1-3.3c-1.1-1.2-2.5-0.9-4.1,0.8c-2.9,2.3-4.8,2.2-5.7-0.2c1.9-0.4,4-1.4,6.2-3
		s3.6-3.2,4.3-4.8c0.7-1.6,0.7-3.3,0.1-5.1c-0.6-1.8-1.1-2.9-1.5-3.2c-2.2-2-4.9-2.6-8.2-1.6c-0.1,0-1,0.5-2.6,1.6
		c-1.7,1-3,3.3-4.1,6.7c-0.3,3.2-0.3,6.1,0.2,8.5c0.3,1.6,0.8,3.1,1.5,4.5c1.6,3.2,4.2,4.3,7.8,3.2c0.3-0.1,0.6-0.2,0.9-0.3
		C54.4,49.4,56.1,48.2,57.3,46.5z M46.6,36.9c0.3-2.3,1.2-4,2.7-5.1c2.6-1.4,4.3-0.5,5,2.8c-2.7,2.6-5.3,4.2-7.8,4.8
		C46.4,38.5,46.5,37.7,46.6,36.9z"/>
	<path d="M50.2,121L45.6,84c-0.7-9.8-2.3-13.9-4.7-12.3l-4.1,2.5c-2-3.4-5.6-3.6-10.7-0.6c-11.4,8.3-16.6,18.2-15.7,29.8
		c0.9,11.6,5.2,17.9,12.7,18.8c7.6,0.9,12.6-1.8,15.3-8.1l1.7,18.4c-12.1-0.8-19.9,0.4-23.4,3.6c-3.5,3.2-5.3,5.9-5.3,8.1
		c-1,3.5-0.1,6.4,2.8,8.8c1.4,1,2.9,0.6,4.4-1c3.5-6.6,13.1-8.7,28.9-6.3c3.5-0.8,4.9-3.3,4.2-7.5L50.2,121z M23.7,109.2
		c-2.5-4-3.1-8.2-1.9-12.8c1.2-4.6,3.5-8,7-10.4c3.5-2.3,5.8-1.9,7.1,1.3l1.4,15.2C30.7,110.9,26.2,113.2,23.7,109.2z"/>
	<path d="M63.7,104.5c-0.2-18.5,2.9-28.7,9.5-30.6c3.2,2.2,5.7,1.4,7.4-2.5c1.1-2.5,1.5-4.5,1.2-5.9
		c-0.2-0.8-0.6-1.4-1.2-1.9c-2.6-1.6-4.3-2.3-4.9-2.1c-7.8,1.9-12.4,4.7-13.6,8.5l0.3-2.5c-0.1-2.2-1.1-3.1-2.9-2.7
		c-0.3,0.1-0.7,0.2-1,0.3c-5,1.1-7.1,4.3-6.1,9.7l1.4,33.5l0,0.2c0.1,0.3,0.1,0.5,0.2,0.8c1,4.3,2.9,6.1,5.9,5.5
		c0.5-0.1,1-0.3,1.5-0.5C63.5,112.7,64.3,109.5,63.7,104.5z"/>
	<path d="M92.2,57c-0.3,0.1-0.7,0.2-1,0.3c-5,1.1-7,4.3-5.9,9.6l2.9,33.5c0,0,0,0.1,0,0.2c1,4.8,3.1,6.9,6.2,6.2
		c0.5-0.1,1-0.3,1.5-0.5c2.8-1.5,3.8-4.7,3-9.7l-3.1-28l-0.7-9C95,57.5,94,56.6,92.2,57z"/>
	<path d="M82.1,45.5c0.8,3.8,3.5,5.6,8.1,5.2c0.5-0.1,1-0.2,1.4-0.3c3.8-0.8,5-3.8,3.6-9c-1.6-5.7-4.3-7.9-8.3-6.5
		c-3.9,1.4-5.6,4.5-5.1,9.2C81.9,44.7,82,45.1,82.1,45.5z"/>
	<path d="M107.6,96.2c0,0,0,0.1,0,0.2c1,4.8,3.1,6.9,6.2,6.2c0.5-0.1,1-0.3,1.5-0.5c2.8-1.5,3.8-4.7,3-9.7l-3.1-28
		l-2.6-31.4c-0.2-2.2-1.2-3.1-3-2.7c-0.3,0.1-0.7,0.2-1,0.3c-5,1.1-7,4.3-5.9,9.6L107.6,96.2z"/>
	<path d="M127,91.9c0,0,0,0.1,0,0.2c1,4.8,3.1,6.9,6.2,6.2c0.5-0.1,1-0.3,1.5-0.5c2.8-1.5,3.8-4.7,3-9.7l-3.1-28
		l-2.6-31.4c-0.2-2.2-1.2-3.1-3-2.7c-0.3,0.1-0.7,0.2-1,0.3c-5,1.1-7,4.3-5.9,9.6L127,91.9z"/>
	<path d="M150.4,44c-0.3,0.1-0.7,0.2-1,0.3c-5,1.1-7,4.3-5.9,9.6l2.9,33.5c0,0,0,0.1,0,0.2c1,4.8,3.1,6.9,6.2,6.2
		c0.5-0.1,1-0.3,1.5-0.5c2.8-1.5,3.8-4.7,3-9.7l-3.1-28l-0.7-9C153.3,44.5,152.3,43.6,150.4,44z"/>
	<path d="M140.3,32.6c0.8,3.8,3.5,5.6,8.1,5.2c0.5-0.1,1-0.2,1.4-0.3c3.8-0.8,5-3.8,3.6-9c-1.6-5.7-4.3-7.9-8.3-6.5
		c-3.9,1.4-5.6,4.5-5.1,9.2C140.1,31.7,140.2,32.2,140.3,32.6z"/>
	<path d="M164.3,83.6c0,0,0,0.1,0,0.2c0.9,4.8,2.9,6.9,6.1,6.2c0.5-0.1,1-0.3,1.5-0.5c2.2-1.4,3.9-4.3,5.1-8.7
		c4.5-21.4,8.2-32.2,11.2-32.3c3-0.1,4.4,8.9,4.4,27c1.3,6.7,3.5,9.7,6.5,9.1c0.9-0.2,2-0.8,3.1-1.7c2-2.2,2.7-4.9,2.1-8.1
		c-0.3-1.7-1-3.6-2.1-5.7c0.4-8.3,0.1-15-0.9-20.1c-1.7-9.1-5.4-13.4-11.2-12.8c-0.7,0.1-1.3,0.2-2,0.3c-8,1.8-13.4,9.4-16.1,23
		l-0.3-17c-0.1-2.2-1.1-3.1-2.9-2.7c-0.3,0.1-0.7,0.2-1,0.3c-5,1.1-7.1,4.3-6.1,9.7L164.3,83.6z"/>
	<path d="M95.9,149.7c2.1-0.6,2.8-1.8,2.1-3.5c-0.1-0.3-0.3-0.6-0.5-0.9c-2-4.8-5.5-6.1-10.5-4l-3,1.1l-0.8-9.1
		c1.2-2.4,3.2-4,5.9-4.6c1-0.7,2-1.1,3-1.2c2.2-0.8,2.5-3,0.7-6.7c-1.8-3.7-3.8-5.1-6-4.3c-0.2,0-1.5,0.5-4.1,1.3
		c-2.6,0.8-5.6,4.8-9.2,11.9c-0.2,1.1-0.3,2.3-0.3,3.3c-0.5,1.4-0.6,3.2-0.1,5.3l0.6,6.9l-5.2,1.5c0,0-0.1,0-0.2,0.1
		c-4.6,1.9-6.2,4.3-4.9,7.3c0.2,0.5,0.5,0.9,0.8,1.4c2,2.4,5.3,2.8,10,1.2l0.5-0.2l2.8,30.9c0,0,0,0.1,0,0.2c1,4.8,3.1,6.9,6.3,6.2
		c0.5-0.1,1-0.3,1.5-0.5c2.8-1.5,3.8-4.7,3-9.7l-3.1-28l-0.2-2.1l7.7-2.7L95.9,149.7z"/>
	<path d="M108.2,139.1c-6.8,1.7-10.8,7.1-12,16.3c-1.2,9.2,0,17.3,3.7,24.3c3.7,7.1,9.7,9.3,18,6.9
		c8.3-2.5,12.4-9.2,12.4-20.3c0-11-2-18.7-6-23.1S115,137.5,108.2,139.1z M115.6,174.9c-3.5,1.1-6.2-0.1-7.9-3.5
		c-1.7-3.4-2.3-7.3-1.9-11.8c0.4-4.4,2.1-7,5-7.7c2.9-0.7,5.2,0,7,2.2c1.8,2.2,2.7,5.9,2.9,11.2S119.1,173.9,115.6,174.9z"/>
	<path d="M144.5,131.1c-6.8,1.7-10.8,7.1-12,16.3c-1.2,9.2,0,17.3,3.7,24.3c3.7,7,9.7,9.3,18,6.9
		c8.3-2.5,12.4-9.2,12.4-20.2c0-11-2-18.7-6-23.1S151.3,129.4,144.5,131.1z M151.9,166.9c-3.5,1.1-6.2-0.1-7.9-3.5
		c-1.7-3.4-2.3-7.4-1.9-11.8c0.4-4.4,2.1-7,5-7.7c2.9-0.7,5.2,0,7,2.2c1.8,2.2,2.7,5.9,2.9,11.2C157.1,162.6,155.4,165.8,151.9,166.9
		z"/>
	<path d="M181.8,134l-2.6-31.4c-0.2-2.2-1.2-3.1-3-2.7c-0.3,0.1-0.7,0.2-1,0.3c-5,1.1-7,4.3-5.9,9.6l4.8,55.9
		c0,0,0,0.1,0,0.2c1,4.8,3.1,6.9,6.2,6.2c0.5-0.1,1-0.3,1.5-0.5c2.8-1.5,3.8-4.7,3-9.7L181.8,134z"/>
	<path d="M216.2,146.2c-0.9-4.2-4.6-6.9-11-8c-9.1-3-9.4-6-0.8-9.1l6.6-3.6c0.4-1.6,0.4-3.1,0.1-4.4
		c-0.5-2.3-2.1-3.9-4.8-4.9c-14,6.6-20.6,12.8-19.8,18.7c0.1,0.4,0.1,0.8,0.2,1.2c1.5,6.7,6.1,10.3,13.7,10.8c8,2.6,7.7,6.1-1,10.5
		c-4.6,0.4-6.9,2.1-7.1,5.1l0.9,3.9c0.4,1.9,1.8,2.9,4.2,3l4.7-1.8c8.4-2.4,13.4-7.4,15-14.8C217.4,150.9,217.1,148.6,216.2,146.2z"
		/>
	<path d="M206.1,42.2l-3-3c2.8-3.1,4.8-6.2,5.9-9.3c1.1-3.1,1.3-6.2,0.7-9.3c-0.1-0.6-0.2-1-0.3-1.2
		c-0.1-0.2-0.2-0.5-0.2-0.8l-6.4,1.6c-0.9-0.8-1.6-1.6-2.1-2.5c-0.5-0.9-0.9-1.9-1.1-2.9c-0.5-2.4-0.2-4.6,0.8-6.5
		c1.1-1.9,2.7-3.1,4.9-3.7c2.8-0.7,5.3-0.2,7.5,1.6c2.2,1.8,3.7,4.5,4.5,8.2c1.1,5,0.7,9.9-1.2,14.7C214,34,210.8,38.3,206.1,42.2z"
		/>
</g>
<g class="letters">
	<path d="M9,55c0.5,2.4,1.6,3.5,3.2,3.1c0.2-0.1,0.5-0.1,0.8-0.3c1.4-0.8,1.9-2.4,1.5-4.9l-1.6-14.1l-0.1-1l3.9-1.3
		l1.6-0.5c0.5-0.1,0.9-0.4,1-0.6l1.1,17c0,0,0,0,0,0.1c0.4,2.4,1.5,3.5,3.1,3.1c0.2-0.1,0.5-0.1,0.8-0.3c1.1-0.7,1.5-2.3,1.2-4.8
		c1.3-10.3,3.1-15.5,5.2-15.6c2.2-0.1,3.1,4.3,2.9,13.1c0.7,3.4,1.7,4.9,3.3,4.6c0.5-0.1,1-0.4,1.6-0.9c1-1.1,1.4-2.5,1.1-4.1
		c-0.2-0.9-0.5-1.8-1.1-2.8c0.3-3.9,0.3-7.1-0.2-9.7c-0.8-4.6-2.7-6.7-5.6-6.4c-0.3,0-0.7,0.1-1,0.2c-4.9,1.2-7.3,3.7-7.3,7.5
		l-0.5-16c-0.1-1.1-0.6-1.5-1.5-1.3c-0.2,0-0.3,0.1-0.5,0.2c-2.5,0.6-3.6,2.2-3.1,4.9l0.6,10c-0.1-0.1-0.1-0.2-0.2-0.3
		c-1-2.4-2.8-3.1-5.3-2l-1.5,0.5l-0.5-5.7c-0.1-1.1-0.6-1.5-1.5-1.3c-0.2,0-0.3,0.1-0.5,0.2c-2.5,0.6-3.5,2.2-3,4.8l0.3,3.5l-2.6,0.7
		c0,0,0,0-0.1,0c-2.3,0.9-3.1,2.2-2.5,3.7c0.1,0.2,0.2,0.5,0.4,0.7c1,1.2,2.7,1.4,5,0.6l0.2-0.1L9,55C9.1,55,9.1,55,9,55z"/>
	<path d="M55.6,45.5c1-1,1-2.1-0.1-3.3C54.4,41,53,41.3,51.4,43c-2.9,2.3-4.8,2.2-5.7-0.2c1.9-0.4,4-1.4,6.2-3
		s3.6-3.2,4.3-4.8c0.7-1.6,0.7-3.3,0.1-5.1c-0.6-1.8-1.1-2.9-1.5-3.2c-2.2-2-4.9-2.6-8.2-1.6c-0.1,0-1,0.5-2.6,1.6
		c-1.7,1-3,3.3-4.1,6.7c-0.3,3.2-0.3,6.1,0.2,8.5c0.3,1.6,0.8,3.1,1.5,4.5c1.6,3.2,4.2,4.3,7.8,3.2c0.3-0.1,0.6-0.2,0.9-0.3
		C52.7,48.4,54.4,47.2,55.6,45.5z M44.8,35.9c0.3-2.3,1.2-4,2.7-5.1c2.6-1.4,4.3-0.5,5,2.8c-2.7,2.6-5.3,4.2-7.8,4.8
		C44.7,37.5,44.7,36.7,44.8,35.9z"/>
	<path d="M48.5,120L43.9,83c-0.7-9.8-2.3-13.9-4.7-12.3l-4.1,2.5c-2-3.4-5.6-3.6-10.7-0.6C13,80.9,7.8,90.8,8.7,102.4
		c0.9,11.6,5.2,17.9,12.7,18.8c7.6,0.9,12.6-1.8,15.3-8.1l1.7,18.4c-12.1-0.8-19.9,0.4-23.4,3.6c-3.5,3.2-5.3,5.9-5.3,8.1
		c-1,3.5-0.1,6.4,2.8,8.8c1.4,1,2.9,0.6,4.4-1c3.5-6.6,13.1-8.7,28.9-6.3c3.5-0.8,4.9-3.3,4.2-7.5L48.5,120z M22,108.2
		c-2.5-4-3.1-8.2-1.9-12.8c1.2-4.6,3.5-8,7-10.4c3.5-2.3,5.8-1.9,7.1,1.3l1.4,15.2C29,109.9,24.4,112.2,22,108.2z"/>
	<path d="M61.9,103.5c-0.2-18.5,2.9-28.7,9.5-30.6c3.2,2.2,5.7,1.4,7.4-2.5c1.1-2.5,1.5-4.5,1.2-5.9
		c-0.2-0.8-0.6-1.4-1.2-1.9c-2.6-1.6-4.3-2.3-4.9-2.1c-7.8,1.9-12.4,4.7-13.6,8.5l0.3-2.5c-0.1-2.2-1.1-3.1-2.9-2.7
		c-0.3,0.1-0.7,0.2-1,0.3c-5,1.1-7.1,4.3-6.1,9.7l1.4,33.5l0,0.2c0.1,0.3,0.1,0.5,0.2,0.8c1,4.3,2.9,6.1,5.9,5.5
		c0.5-0.1,1-0.3,1.5-0.5C61.8,111.7,62.6,108.5,61.9,103.5z"/>
	<path d="M90.5,56c-0.3,0.1-0.7,0.2-1,0.3c-5,1.1-7,4.3-5.9,9.6l2.9,33.5c0,0,0,0.1,0,0.2c1,4.8,3.1,6.9,6.2,6.2
		c0.5-0.1,1-0.3,1.5-0.5c2.8-1.5,3.8-4.7,3-9.7l-3.1-28l-0.7-9C93.3,56.5,92.3,55.6,90.5,56z"/>
	<path d="M80.3,44.5c0.8,3.8,3.5,5.6,8.1,5.2c0.5-0.1,1-0.2,1.4-0.3c3.8-0.8,5-3.8,3.6-9c-1.6-5.7-4.3-7.9-8.3-6.5
		c-3.9,1.4-5.6,4.5-5.1,9.2C80.2,43.7,80.2,44.1,80.3,44.5z"/>
	<path d="M105.9,95.2c0,0,0,0.1,0,0.2c1,4.8,3.1,6.9,6.2,6.2c0.5-0.1,1-0.3,1.5-0.5c2.8-1.5,3.8-4.7,3-9.7l-3.1-28
		L111,31.9c-0.2-2.2-1.2-3.1-3-2.7c-0.3,0.1-0.7,0.2-1,0.3c-5,1.1-7,4.3-5.9,9.6L105.9,95.2z"/>
	<path d="M125.3,90.9c0,0,0,0.1,0,0.2c1,4.8,3.1,6.9,6.2,6.2c0.5-0.1,1-0.3,1.5-0.5c2.8-1.5,3.8-4.7,3-9.7L133,59
		l-2.6-31.4c-0.2-2.2-1.2-3.1-3-2.7c-0.3,0.1-0.7,0.2-1,0.3c-5,1.1-7,4.3-5.9,9.6L125.3,90.9z"/>
	<path d="M148.7,43c-0.3,0.1-0.7,0.2-1,0.3c-5,1.1-7,4.3-5.9,9.6l2.9,33.5c0,0,0,0.1,0,0.2c1,4.8,3.1,6.9,6.2,6.2
		c0.5-0.1,1-0.3,1.5-0.5c2.8-1.5,3.8-4.7,3-9.7l-3.1-28l-0.7-9C151.5,43.5,150.5,42.6,148.7,43z"/>
	<path d="M138.5,31.6c0.8,3.8,3.5,5.6,8.1,5.2c0.5-0.1,1-0.2,1.4-0.3c3.8-0.8,5-3.8,3.6-9c-1.6-5.7-4.3-7.9-8.3-6.5
		c-3.9,1.4-5.6,4.5-5.1,9.2C138.4,30.7,138.4,31.2,138.5,31.6z"/>
	<path d="M162.6,82.6c0,0,0,0.1,0,0.2c0.9,4.8,2.9,6.9,6.1,6.2c0.5-0.1,1-0.3,1.5-0.5c2.2-1.4,3.9-4.3,5.1-8.7
		c4.5-21.4,8.2-32.2,11.2-32.3c3-0.1,4.4,8.9,4.4,27c1.3,6.7,3.5,9.7,6.5,9.1c0.9-0.2,2-0.8,3.1-1.7c2-2.2,2.7-4.9,2.1-8.1
		c-0.3-1.7-1-3.6-2.1-5.7c0.4-8.3,0.1-15-0.9-20.1c-1.7-9.1-5.4-13.4-11.2-12.8c-0.7,0.1-1.3,0.2-2,0.3c-8,1.8-13.4,9.4-16.1,23
		l-0.3-17c-0.1-2.2-1.1-3.1-2.9-2.7c-0.3,0.1-0.7,0.2-1,0.3c-5,1.1-7.1,4.3-6.1,9.7L162.6,82.6z"/>
	<path d="M94.1,148.7c2.1-0.6,2.8-1.8,2.1-3.5c-0.1-0.3-0.3-0.6-0.5-0.9c-2-4.8-5.5-6.1-10.5-4l-3,1.1l-0.8-9.1
		c1.2-2.4,3.2-4,5.9-4.6c1-0.7,2-1.1,3-1.2c2.2-0.8,2.5-3,0.7-6.7c-1.8-3.7-3.8-5.1-6-4.3c-0.2,0-1.5,0.5-4.1,1.3
		c-2.6,0.8-5.6,4.8-9.2,11.9c-0.2,1.1-0.3,2.3-0.3,3.3c-0.5,1.4-0.6,3.2-0.1,5.3l0.6,6.9l-5.2,1.5c0,0-0.1,0-0.2,0.1
		c-4.6,1.9-6.2,4.3-4.9,7.3c0.2,0.5,0.5,0.9,0.8,1.4c2,2.4,5.3,2.8,10,1.2l0.5-0.2l2.8,30.9c0,0,0,0.1,0,0.2c1,4.8,3.1,6.9,6.3,6.2
		c0.5-0.1,1-0.3,1.5-0.5c2.8-1.5,3.8-4.7,3-9.7l-3.1-28l-0.2-2.1l7.7-2.7L94.1,148.7z"/>
	<path d="M106.5,138.1c-6.8,1.7-10.8,7.1-12,16.3c-1.2,9.2,0,17.3,3.7,24.3c3.7,7.1,9.7,9.3,18,6.9
		c8.3-2.5,12.4-9.2,12.4-20.3c0-11-2-18.7-6-23.1S113.3,136.5,106.5,138.1z M113.8,173.9c-3.5,1.1-6.2-0.1-7.9-3.5
		c-1.7-3.4-2.3-7.3-1.9-11.8c0.4-4.4,2.1-7,5-7.7c2.9-0.7,5.2,0,7,2.2c1.8,2.2,2.7,5.9,2.9,11.2S117.4,172.9,113.8,173.9z"/>
	<path d="M142.8,130.1c-6.8,1.7-10.8,7.1-12,16.3c-1.2,9.2,0,17.3,3.7,24.3c3.7,7,9.7,9.3,18,6.9
		c8.3-2.5,12.4-9.2,12.4-20.2c0-11-2-18.7-6-23.1S149.6,128.4,142.8,130.1z M150.1,165.9c-3.5,1.1-6.2-0.1-7.9-3.5
		c-1.7-3.4-2.3-7.4-1.9-11.8c0.4-4.4,2.1-7,5-7.7c2.9-0.7,5.2,0,7,2.2c1.8,2.2,2.7,5.9,2.9,11.2C155.4,161.6,153.7,164.8,150.1,165.9
		z"/>
	<path d="M180.1,133l-2.6-31.4c-0.2-2.2-1.2-3.1-3-2.7c-0.3,0.1-0.7,0.2-1,0.3c-5,1.1-7,4.3-5.9,9.6l4.8,55.9
		c0,0,0,0.1,0,0.2c1,4.8,3.1,6.9,6.2,6.2c0.5-0.1,1-0.3,1.5-0.5c2.8-1.5,3.8-4.7,3-9.7L180.1,133z"/>
	<path d="M214.4,145.2c-0.9-4.2-4.6-6.9-11-8c-9.1-3-9.4-6-0.8-9.1l6.6-3.6c0.4-1.6,0.4-3.1,0.1-4.4
		c-0.5-2.3-2.1-3.9-4.8-4.9c-14,6.6-20.6,12.8-19.8,18.7c0.1,0.4,0.1,0.8,0.2,1.2c1.5,6.7,6.1,10.3,13.7,10.8c8,2.6,7.7,6.1-1,10.5
		c-4.6,0.4-6.9,2.1-7.1,5.1l0.9,3.9c0.4,1.9,1.8,2.9,4.2,3l4.7-1.8c8.4-2.4,13.4-7.4,15-14.8C215.7,149.9,215.4,147.6,214.4,145.2z"
		/>
	<path d="M204.3,41.2l-3-3c2.8-3.1,4.8-6.2,5.9-9.3c1.1-3.1,1.3-6.2,0.7-9.3c-0.1-0.6-0.2-1-0.3-1.2
		c-0.1-0.2-0.2-0.5-0.2-0.8l-6.4,1.6c-0.9-0.8-1.6-1.6-2.1-2.5c-0.5-0.9-0.9-1.9-1.1-2.9c-0.5-2.4-0.2-4.6,0.8-6.5
		c1.1-1.9,2.7-3.1,4.9-3.7c2.8-0.7,5.3-0.2,7.5,1.6c2.2,1.8,3.7,4.5,4.5,8.2c1.1,5,0.7,9.9-1.2,14.7C212.1,33,208.9,37.3,204.3,41.2z
		"/>
</g>
</svg>
