<svg version="3"
	 xmlns="http://www.w3.org/2000/svg" xmlns:xlink="http://www.w3.org/1999/xlink"
	 x="0px" y="0px" width="675px" height="624px" viewBox="0 -2 675 624"
	 style="overflow:visible;enable-background:new 0 -2 675 624;height: 100%;width: 100%;" xml:space="preserve" class="logo-svg">
<style type="text/css">
<![CDATA[
	.letters path {fill:#C4203B;}
	.letter-highlight path{fill:#FFFFFF;}
	.letter-outline path{fill:#000000;}
	.grate path {fill:#000000;}
]]>
</style>
<defs>
</defs>
<g class="grate">
	<path d="M121,101C4,226,11,421,136,537c125,116,320,110,436-15c116-125,110-320-15-436S237-24,121,101z
		 M556,507c-108,116-289,122-405,14c-116-108-122-289-14-405S426-6,542,102C657,210,664,392,556,507z"/>
	<path d="M137,116c-2,2-4,5-6,7l419,391c2-2,4-4,6-7s4-5,6-7L143,110
		C141,112,139,114,137,116z"/>
	<path d="M299,29l332,310c1-8,1-16,1-23L323,26C315,27,307,28,299,29z"/>
	<path d="M625,245L393,29c-10-2-20-3-30-3l267,249C629,265,627,255,625,245z"/>
	<path d="M203,63l401,374c3-6,5-11,8-17L220,54C215,57,209,60,203,63z"/>
	<path d="M164,90l415,388c4-5,7-10,10-15L178,79C173,83,169,86,164,90z"/>
	<path d="M248,42l373,348c2-7,4-13,5-20L268,36C262,38,255,40,248,42z"/>
	<path d="M82,201l393,367c6-3,11-6,17-9L89,184C87,190,84,195,82,201z"/>
	<path d="M104,159l411,384c5-4,10-7,14-11L114,144C110,149,107,154,104,159z"/>
	<path d="M60,305l313,293c8-1,15-2,23-3L61,281C60,289,60,297,60,305z"/>
	<path d="M67,376l235,219c10,2,20,3,30,3l-269-251C63,356,65,366,67,376z"/>
	<path d="M67,248l362,338c7-2,13-4,19-7L72,228C70,235,68,242,67,248z"/>
	<path d="M103,463l109,102c16,8,32,15,48,20l-180-168C86,432,93,448,103,463z"/>
	<path d="M587,156l-103-96c-16-9-32-16-49-21l177,165C605,188,597,172,587,156z"/>
</g>
<g class="letter-outline">
	<path d="M622,149l-29-29l10-11c7-8,12-15,14-23c1-4,2-7,2-10l-11,3l-6-5c-4-3-7-7-9-11
		c-2-4-4-9-5-14c-2-11-1-21,4-30c5-9,14-16,24-18c13-3,26-1,36,8c9,8,16,19,19,33
		c4,18,2,36-5,53c-7,17-18,32-34,45L622,149z M627,30c-1,0-2,0-4,0c-3,1-4,2-5,4
		c-1,2-2,4-1,9c0,1,0,2,1,2l20-5c-2-4-3-6-6-8C630,30,629,30,627,30z"/>
	<path d="M46,196L46,196c-5,0-20-2-24-23l-1-4l0-1l-3-28C14,140,9,137,5,132l-1-1
		c-1-2-2-3-2-5L2,126c-2-6-3-12-0-18c2-6,7-10,13-14c-1-14,7-26,21-29c1-0,2-1,3-1
		c4-1,9-1,13,1c2-9,10-16,20-19c1-0,2-1,3-1c2-0,3-1,5-1c9,0,19,6,20,20l0,1l0,11
		c1-0,2-1,3-1l0,0c2-0,3-1,5-1l0,0c1,0,2-0,3-0c8,0,26,3,32,33c2,8,2,18,1,29
		c1,3,2,6,3,9c2,10-1,19-7,26L138,173l-1,1c-4,3-8,5-12,6c-2,0-3,1-5,1
		c-5,0-12-2-17-9c-2,7-6,12-10,14l-1,1l-1,1c-2,1-4,1-5,2c-2,0-4,1-5,1
		c-2,0-8-1-13-4c-3,5-7,7-9,8l-1,0l-1,0c-2,1-4,1-5,2C50,196,48,196,46,196z"/>
	<path d="M152,172L152,172c-14,0-24-7-31-20c-3-5-5-11-6-18c-2-9-2-19-1-30l0-2l1-2
		c5-14,11-24,19-29c8-5,10-6,12-7c15-4,29-1,40,8c4,3,6,8,9,17c3,9,3,18-1,27
		c-1,2-2,4-3,6c7,9,7,21-1,29c-5,7-13,13-23,16l-0,0c-1,0-2,1-4,1
		C160,171,156,172,152,172z"/>
	<path d="M53,479c-5,0-10-2-14-5l-1-1l-1-1c-13-11-18-26-14-42c1-11,8-22,21-34
		c7-6,16-11,29-13c0,0-0,0-0,0c-22-3-48-17-53-71c-3-41,15-76,54-104l1-1l1-0
		c10-6,19-8,27-8c6,0,11,2,16,4l2-1c4-2,8-4,12-4c6,0,17,3,23,21c2,8,4,18,5,32
		l14,111l4,51c4,25-11,38-26,41l-3,1l-3-1c-12-2-22-3-32-3c-14,0-33,2-38,13l-1,2l-2,2
		C66,478,59,479,53,479z M57,435l0,2l-0,1c13-12,32-18,58-18c9,0,19,1,30,2c0-1,0-2-0-3
		l-0-2l-19-1c-7-1-13-1-19-1c-29,0-37,5-39,7C59,431,57,435,57,435z M140,361l3,35
		l-2-29L140,361z M106,382c1,0,2,0,2,0l0-2c-1,1-2,1-4,2C105,382,106,382,106,382z M55,317
		c4,32,18,34,23,35c2,0,5,0,6,0c5,0,9-1,12-2c-3,1-7,2-10,2c-9,0-18-5-23-14
		C59,332,56,325,55,317z M98,276c-5,5-9,11-11,19c-2,8-2,15,2,21c3-2,7-6,12-12L98,276z
		 M118,243c3,2,6,5,8,9c-1-5-1-10-2-13L118,243z M94,237c-7,5-12,10-17,15c2-2,5-4,7-5
		c7-5,14-7,21-7c1,0,2,0,2,0l-4-6C101,233,98,234,94,237z"/>
	<path d="M182,363L182,363c-7,0-25-3-30-30l-1-4l-4-101c-4-24,7-41,30-47c2-1,3-1,5-2
		c2-0,4-1,6-1c4,0,8,1,11,3c8-5,19-9,32-12l0,0c1-0,3-1,4-1c6,0,12,2,23,9l1,1
		l1,1c5,4,8,9,9,15c2,8,0,17-5,28c-8,18-21,21-28,21c-3,0-6-1-9-2c-7,8-13,29-13,72
		c3,21-2,36-15,44l-1,1l-1,1c-3,1-5,2-8,2C187,362,185,363,182,363z M188,212l-1,1
		L185,213c-5,1-7,2-6,10l0,1l2,55c2-25,9-50,24-63L188,212z M182,211c2,1,3,1,5,1
		c0,0,1,0,1,0L182,211z M233,203c-8,2-13,4-17,6c2-1,3-1,5-2l8-2l5,3c1-2,2-4,2-5
		C234,204,234,203,233,203z"/>
	<path d="M273,171L273,171c-19,0-33-11-37-29c-1-2-1-4-1-6c-2-22,7-38,26-44c4-2,8-2,12-2
		c9,0,26,4,34,33c4,14,3,25-2,33c-3,5-9,12-21,14c-2,0-4,1-6,1l-1,0
		C276,171,275,171,273,171z M269,137c0,0,1,1,4,1h0c1,0,1,0,2,0c1,0,2-0,2-0c0-1-0-3-1-7
		c-1-5-2-7-3-8c-3,1-5,2-4,10l0,1c0,0,0,1,0,1C269,137,269,137,269,137L269,137z"/>
	<path d="M286,340L286,340c-8,0-26-3-32-32l-0-1l0-1l-9-100c-5-24,6-41,29-47c2-1,3-1,5-2
		c2-1,4-1,6-1c11,0,22,7,23,23l2,27l9,83c4,28-7,40-18,46l-2,1c-3,1-5,2-8,2
		C291,339,288,340,286,340z M287,301c0,1,0,1,0,2c0-2,0-5-1-8l0-1L285,278L287,301z"/>
	<path d="M344,326L344,326c-8,0-26-3-32-32l-0-2l0-1l-14-167c-5-24,6-41,29-47c2-1,3-1,5-2
		c2-0,4-1,6-1c11,0,22,7,23,23l8,94l9,83c4,28-7,40-18,46l-1,1c-3,1-5,2-8,2
		C349,326,347,326,344,326z M345,288c0,1,0,1,0,2c0-2,0-5-1-8l0-1l-2-15L345,288z"/>
	<path d="M403,314L403,314c-8,0-26-3-32-32l-0-1l-14-168c-5-24,6-41,29-47c2-1,3-1,5-2
		c2-1,4-1,6-1c11,0,22,7,23,23l8,94l9,83c4,28-7,40-18,46l-2,1c-3,1-5,2-8,2
		C407,313,405,314,403,314z M404,275c0,1,0,1,0,2c0-2,0-5-1-8l0-1l-2-15L404,275z"/>
	<path d="M461,301L461,301c-8,0-26-3-32-32l-0-1l0-1l-9-100c-5-24,6-41,29-47c2-1,3-1,5-2
		c2-0,4-1,6-1c11,0,22,7,23,23l2,27l9,83c4,28-7,40-18,46l-1,0l-1,0
		c-3,1-5,2-8,2C465,300,463,301,461,301z M462,262c0,1,0,1,0,2c0-2,0-5-1-8l0-1
		l-2-16L462,262z"/>
	<path d="M448,132L448,132c-19,0-33-11-37-29c-1-2-1-4-1-6c-2-22,7-38,26-44c4-2,8-2,12-2
		c9,0,26,4,34,33c4,14,3,25-2,33c-3,5-9,12-21,14c-2,0-4,1-6,1l-1,0
		C451,132,449,132,448,132z M444,98c0,0,1,1,4,1l0,0c1,0,1,0,2,0c1,0,2-0,2-0c0-1-0-3-1-7
		c-1-5-2-7-3-8c-3,1-5,2-4,10l0,1c0,0,0,1,0,1C443,98,444,98,444,98L444,98z"/>
	<path d="M509,331l-1-42c-9-2-21-9-25-32l-0-1L475,153c-4-24,7-41,30-47c2-1,3-1,5-2
		c2-0,4-1,6-1c7,0,14,3,19,10c9-10,20-17,33-20c3-1,5-1,8-1l0,0c2-0,3-0,5-0
		c17,0,39,9,47,52c3,16,4,35,3,60c3,6,5,12,6,18c3,14-1,28-10,38l-1,1l-1,1
		c-5,5-11,8-16,9c-2,1-4,1-6,1c-17,0-28-14-33-41l-0-2l0-2c0-15-0-27-1-36
		c-4,13-8,31-13,56l-0,1c-5,18-12,29-23,36l-1,1l-1,1c-3,1-5,2-8,2
		c-1,0-2,1-4,1L509,331z M601,227c1,4,2,7,2,9c0-2,1-4,0-6c-0-2-1-5-2-8
		C601,223,601,225,601,227z M571,131c6,0,11,2,15,7c2,2,5,6,7,12c-2-11-6-23-14-23
		c-0,0-1,0-1,0c-2,0-3,0-4,1c-4,1-8,3-11,5c2-1,5-2,8-2L571,131z"/>
	<path d="M254,600L254,600c-9,0-26-4-32-32l-1-4l0-1l-7-72c-1,0-1,0-2,0c-15,0-23-7-28-13
		l-1-1c-2-2-3-5-4-7l-0-1c-4-10-3-18-1-23c4-9,11-15,23-20c1-1,2-1,4-2l2-1
		l-1-6c-2-8-1-15,0-21c0-3,1-6,1-9l0-3l1-2c14-27,25-40,37-44c8-2,11-4,12-4
		c3-1,6-2,9-2c8,0,20,4,29,23c5,12,7,21,3,29c-3,6-8,11-15,14l-2,1l-2,0
		c-0,0-1,0-2,1l-2,2l-3,1c-2,1-4,1-5,2l0,1c2-0,5-1,7-1c9,0,24,3,34,23
		c1,1,1,2,2,3l1,1c4,9,2,16,0,20c-2,4-7,10-17,13l-9,3l-11,4l9,77
		c4,28-7,40-18,46l-1,1c-3,1-5,2-8,2C258,600,256,600,254,600z M255,563c0,0,0,1,0,1
		c0-2,0-5-1-8l0-1l-2-22l3,30C255,563,255,563,255,563z M217,457L217,457c-1,0-2,1-2,1
		c2-0,5-1,8-2l10-3L217,457z M260,371c-1,0-4,3-9,11c5-4,10-7,16-8c1-1,2-1,3-2
		c-1-1-1-2-2-3C266,368,263,369,260,371z"/>
	<path d="M342,581L342,581c-15,0-37-6-51-32c-13-24-17-52-13-83c6-43,30-58,48-63
		c7-2,14-3,20-3c18,0,33,7,45,20c15,17,22,43,22,80c0,51-27,70-49,77
		C357,580,349,581,342,581z M320,533c0,0,0,1,1,1c7,13,15,15,22,15l0,0c4,0,8-1,13-2
		c7-2,14-5,19-14c-5,6-11,9-16,10c-4,1-8,2-12,2C339,545,329,543,320,533z M345,474
		c-0,0-1,0-2,0c0,0-0,0-0,0c-0,0-2,3-2,9c-1,10,0,19,4,26c1,2,1,2,2,2
		c0,0,1,0,2-1c3-1,4-5,4-13c-0-17-4-22-5-23C346,474,345,474,345,474z M345,441
		c11,0,20,5,28,13c1,1,2,3,3,4c-2-8-5-12-8-16c-5-6-12-9-20-9c-4,0-8,1-12,2
		c-7,2-16,6-21,21c6-10,14-13,20-15C338,441,341,441,345,441z"/>
	<path d="M451,557L451,557c-15,0-37-6-51-32c-13-24-17-52-13-83c6-43,30-58,48-63
		c7-2,14-3,20-3c18,0,33,7,45,20c15,17,22,43,22,80c0,51-27,70-49,77
		C466,556,458,557,451,557z M429,508c0,0,0,1,1,1c7,13,15,15,22,15c0,0,0,0,0,0
		c4,0,8-1,13-2c7-2,14-5,19-14c-5,6-11,9-16,10c-4,1-8,2-12,2
		C448,521,438,519,429,508z M454,449c-0,0-1,0-2,0c0,0-0,0-0,0c-0,0-2,3-2,9
		c-1,10,0,19,4,26c1,2,1,2,2,2c0,0,1,0,2-1c3-1,4-5,4-13c-0-17-4-22-5-23
		C455,449,454,449,454,449z M454,416c11,0,20,5,28,13c1,1,2,3,3,4c-2-8-5-12-8-16
		c-5-6-12-9-20-9c-4,0-8,1-12,2c-7,2-16,6-21,21c6-10,14-13,20-15C447,417,450,416,454,416z"/>
	<path d="M544,536L544,536c-8,0-26-3-32-32l-0-2l-14-168c-5-24,6-41,29-47c2-1,3-1,5-2
		c2-1,4-1,6-1c11,0,22,7,23,23l8,94l9,83c4,28-7,40-18,46l-1,0l-1,0
		c-3,1-5,2-8,2C548,535,546,536,544,536z M545,497c0,1,0,1,0,2c0-2,0-5-1-8l0-1
		l-2-15L545,497z"/>
	<path d="M601,527l-4-0c-14-1-25-9-28-22l-3-14l0-2c0-8,4-26,32-30c-26-4-43-20-48-44
		c-0-2-1-3-1-5c-5-34,37-58,69-73l6-3l6,2c13,5,22,14,25,26c2,6,1,13-0,20l-2,8
		l-23,12c27,7,36,22,39,34c4,10,5,20,3,29c-4,20-17,45-56,57L601,527z M632,437
		c3,2,5,5,7,8l-0-1C638,441,635,439,632,437z M584,398c-2,3-2,5-2,7
		c0,1,0,2,0,2c2,8,5,15,16,18c-8-5-14-11-15-22C584,401,584,400,584,398z"/>
</g>
<g class="letter-highlight">
	<path d="M32,168c2,7,5,11,10,9c1-0,2-0,2-1c4-2,6-7,5-15l-5-42l-0-3l12-4
		l5-2c2-0,3-1,3-2l3,51c0,0,0,0,0,0c1,7,5,11,9,9c1-0,2-0,2-1c3-2,5-7,4-14
		c4-31,9-47,16-47c7-0,9,13,9,39c2,10,5,15,10,14c2-0,3-1,5-3c3-3,4-8,3-12
		c-1-3-2-5-3-8c1-12,1-21-1-29c-2-14-8-20-17-19c-1,0-2,0-3,1c-15,4-22,11-22,23
		l-2-48c-0-3-2-5-5-4c-1,0-1,0-2,1c-8,2-11,7-9,15l2,30c-0-0-0-1-1-1
		c-3-7-8-9-16-6L42,100l-2-17c-0-3-2-5-5-4c-1,0-1,0-2,1C27,81,24,86,26,94l1,11l-8,2
		c0,0,0,0-0,0c-7,3-9,7-8,11c0,1,1,2,1,2c3,4,8,4,15,2l1-0L32,168C32,168,32,168,32,168z"/>
	<path d="M172,140c3-3,3-6-0-10c-3-4-8-3-12,2c-9,7-14,7-17-1c6-1,12-4,19-9
		s11-10,13-14c2-5,2-10,0-15c-2-5-3-9-5-10c-7-6-15-8-25-5c-0,0-3,2-8,5
		c-5,3-9,10-12,20c-1,10-1,18,1,26c1,5,2,9,5,14c5,10,13,13,23,10c1-0,2-1,3-1
		C163,148,168,145,172,140z M140,111c1-7,4-12,8-15c8-4,13-2,15,8c-8,8-16,13-23,14
		C139,116,140,113,140,111z"/>
	<path d="M151,363L137,252c-2-29-7-42-14-37l-12,8c-6-10-17-11-32-2c-34,25-50,55-47,89
		c3,35,16,54,38,56c23,3,38-5,46-24l5,55c-36-2-60,1-70,11c-11,10-16,18-16,24
		c-3,11-0,19,8,26c4,3,9,2,13-3c11-20,39-26,87-19c11-2,15-10,13-23L151,363z M71,328
		c-8-12-9-25-6-38c4-14,11-24,21-31c11-7,17-6,21,4l4,46C92,333,79,340,71,328z"/>
	<path d="M191,314c-1-56,9-86,29-92c10,7,17,4,22-8c3-8,5-14,4-18
		c-1-2-2-4-4-6c-8-5-13-7-15-6c-23,6-37,14-41,26l1-8c-0-7-3-9-9-8
		c-1,0-2,1-3,1c-15,3-21,13-18,29l4,101l0,1c0,1,0,2,1,2c3,13,9,18,18,17
		c2-0,3-1,5-2C191,338,193,329,191,314z"/>
	<path d="M277,171c-1,0-2,1-3,1c-15,3-21,13-18,29l9,101c0,0,0,0,0,1c3,14,9,21,19,19
		c2-0,3-1,5-2c8-5,11-14,9-29l-9-84l-2-27C285,173,282,170,277,171z"/>
	<path d="M246,137c2,11,11,17,24,16c2-0,3-1,4-1c11-2,15-11,11-27c-5-17-13-24-25-20
		c-12,4-17,14-15,28C246,134,246,135,246,137z"/>
	<path d="M323,289c0,0,0,0,0,1c3,14,9,21,19,19c2-0,3-1,5-2c8-5,11-14,9-29l-9-84
		l-8-94c-1-7-4-9-9-8c-1,0-2,1-3,1c-15,3-21,13-18,29L323,289z"/>
	<path d="M381,276c0,0,0,0,0,1c3,14,9,21,19,19c2-0,3-1,5-2c8-5,11-14,9-29l-9-84
		l-8-94c-1-7-4-9-9-8c-1,0-2,1-3,1c-15,3-21,13-18,29L381,276z"/>
	<path d="M451,132c-1,0-2,1-3,1c-15,3-21,13-18,29l9,101c0,0,0,0,0,1c3,14,9,21,19,19
		c2-0,3-1,5-2c8-5,11-14,9-29l-9-84l-2-27C460,134,457,131,451,132z"/>
	<path d="M421,98c2,11,11,17,24,16c2-0,3-1,4-1c11-2,15-11,11-27c-5-17-13-24-25-20
		c-12,4-17,14-15,28C420,95,421,97,421,98z"/>
	<path d="M493,251c0,0,0,0,0,1c3,14,9,21,18,19c2-0,3-1,5-2c7-4,12-13,15-26
		c14-64,25-97,34-97c9-0,13,27,13,81c4,20,11,29,20,27c3-1,6-2,9-5c6-7,8-15,6-24
		c-1-5-3-11-6-17c1-25,0-45-3-60c-5-27-16-40-34-38c-2,0-4,1-6,1c-24,5-40,28-48,69
		l-1-51c-0-7-3-9-9-8c-1,0-2,1-3,1c-15,3-21,13-18,29L493,251z"/>
	<path d="M288,449c6-2,8-5,6-11c-0-1-1-2-2-3c-6-14-17-18-32-12l-9,3l-2-27
		c4-7,10-12,18-14c3-2,6-3,9-4c7-2,8-9,2-20c-5-11-11-15-18-13c-1,0-5,2-12,4
		c-8,2-17,14-28,36c-1,3-1,7-1,10c-2,4-2,10-0,16l2,21l-16,5c0,0-0,0-1,0
		c-14,6-19,13-15,22c1,2,2,3,2,4c6,7,16,8,30,4l2-1l8,93c0,0,0,0,0,1c3,14,9,21,19,19
		c2-0,3-1,5-2c8-5,11-14,9-29l-9-84l-1-6l23-8L288,449z"/>
	<path d="M325,417c-20,5-32,21-36,49c-4,28,0,52,11,73c11,21,29,28,54,21
		c25-8,37-28,37-61c0-33-6-56-18-69S345,413,325,417z M347,525c-11,3-19-0-24-11
		c-5-10-7-22-6-35c1-13,6-21,15-23c9-2,16,0,21,7c5,7,8,18,9,34S357,522,347,525z"/>
	<path d="M434,393c-20,5-32,21-36,49c-4,28,0,52,11,73c11,21,29,28,54,21
		c25-8,37-28,37-61c0-33-6-56-18-69S454,388,434,393z M456,501c-11,3-19-0-24-11
		c-5-10-7-22-6-35c1-13,6-21,15-23c9-2,16,0,21,7c5,7,8,18,9,34C471,488,466,497,456,501
		z"/>
	<path d="M545,402l-8-94c-1-7-4-9-9-8c-1,0-2,1-3,1c-15,3-21,13-18,29l14,168
		c0,0,0,0,0,1c3,14,9,21,19,19c2-0,3-1,5-2c8-5,11-14,9-29L545,402z"/>
	<path d="M649,439c-3-13-14-21-33-24c-27-9-28-18-2-27l20-11c1-5,1-9,0-13
		c-2-7-6-12-14-15c-42,20-62,38-59,56c0,1,0,2,1,4c5,20,18,31,41,32c24,8,23,18-3,32
		c-14,1-21,6-21,15l3,12c1,6,5,9,13,9l14-5c25-7,40-22,45-44C652,453,651,446,649,439z"
		/>
	<path d="M618,127l-9-9c8-9,14-19,18-28c3-9,4-19,2-28c-0-2-1-3-1-4
		c-0-1-1-2-1-2l-19,5c-3-2-5-5-6-8c-2-3-3-6-3-9c-2-7-1-14,2-20
		c3-6,8-9,15-11c8-2,16-1,23,5c7,5,11,14,14,25c3,15,2,30-4,44C642,102,632,115,618,127z"
		/>
</g>
<g class="letters">
	<path d="M27,165c2,7,5,11,10,9c1-0,2-0,2-1c4-2,6-7,5-15l-5-42l-0-3l12-4
		l5-2c2-0,3-1,3-2l3,51c0,0,0,0,0,0c1,7,5,11,9,9c1-0,2-0,2-1c3-2,5-7,4-14
		c4-31,9-47,16-47c7-0,9,13,9,39c2,10,5,15,10,14c2-0,3-1,5-3c3-3,4-8,3-12
		c-1-3-2-5-3-8c1-12,1-21-1-29c-2-14-8-20-17-19c-1,0-2,0-3,1c-15,4-22,11-22,23
		l-2-48c-0-3-2-5-5-4c-1,0-1,0-2,1c-8,2-11,7-9,15l2,30c-0-0-0-1-1-1
		c-3-7-8-9-16-6l-5,2l-2-17c-0-3-2-5-5-4c-1,0-1,0-2,1c-8,2-11,7-9,14l1,11l-8,2
		c0,0,0,0-0,0c-7,3-9,7-8,11c0,1,1,2,1,2c3,4,8,4,15,2l1-0L27,165C27,165,27,165,27,165z"/>
	<path d="M167,137c3-3,3-6-0-10C163,123,159,124,154,129c-9,7-14,7-17-1c6-1,12-4,19-9
		s11-10,13-14c2-5,2-10,0-15c-2-5-3-9-5-10c-7-6-15-8-25-5c-0,0-3,2-8,5
		c-5,3-9,10-12,20c-1,10-1,18,1,26c1,5,2,9,5,14c5,10,13,13,23,10c1-0,2-1,3-1
		C158,145,163,142,167,137z M134,108c1-7,4-12,8-15c8-4,13-2,15,8c-8,8-16,13-23,14
		C134,113,134,110,134,108z"/>
	<path d="M146,360L132,249c-2-29-7-42-14-37l-12,8c-6-10-17-11-32-2C39,243,23,272,26,307
		c3,35,16,54,38,56c23,3,38-5,46-24l5,55c-36-2-60,1-70,11c-11,10-16,18-16,24
		c-3,11-0,19,8,26c4,3,9,2,13-3c11-20,39-26,87-19c11-2,15-10,13-23L146,360z M66,325
		c-8-12-9-25-6-38c4-14,11-24,21-31c11-7,17-6,21,4l4,46C87,330,73,337,66,325z"/>
	<path d="M186,311c-1-56,9-86,29-92c10,7,17,4,22-8c3-8,5-14,4-18
		c-1-2-2-4-4-6c-8-5-13-7-15-6c-23,6-37,14-41,26l1-8c-0-7-3-9-9-8
		c-1,0-2,1-3,1c-15,3-21,13-18,29l4,101l0,1c0,1,0,2,1,2c3,13,9,18,18,17
		c2-0,3-1,5-2C185,335,188,326,186,311z"/>
	<path d="M272,168c-1,0-2,1-3,1c-15,3-21,13-18,29l9,101c0,0,0,0,0,1c3,14,9,21,19,19
		c2-0,3-1,5-2c8-5,11-14,9-29l-9-84l-2-27C280,170,277,167,272,168z"/>
	<path d="M241,134c2,11,11,17,24,16c2-0,3-1,4-1c11-2,15-11,11-27c-5-17-13-24-25-20
		c-12,4-17,14-15,28C241,131,241,132,241,134z"/>
	<path d="M318,286c0,0,0,0,0,1c3,14,9,21,19,19c2-0,3-1,5-2c8-5,11-14,9-29l-9-84
		L333,96c-1-7-4-9-9-8c-1,0-2,1-3,1c-15,3-21,13-18,29L318,286z"/>
	<path d="M376,273c0,0,0,0,0,1c3,14,9,21,19,19c2-0,3-1,5-2c8-5,11-14,9-29L399,177
		l-8-94c-1-7-4-9-9-8c-1,0-2,1-3,1c-15,3-21,13-18,29L376,273z"/>
	<path d="M446,129c-1,0-2,1-3,1c-15,3-21,13-18,29l9,101c0,0,0,0,0,1c3,14,9,21,19,19
		c2-0,3-1,5-2c8-5,11-14,9-29l-9-84l-2-27C455,131,452,128,446,129z"/>
	<path d="M416,95c2,11,11,17,24,16c2-0,3-1,4-1c11-2,15-11,11-27c-5-17-13-24-25-20
		c-12,4-17,14-15,28C415,92,415,94,416,95z"/>
	<path d="M488,248c0,0,0,0,0,1c3,14,9,21,18,19c2-0,3-1,5-2c7-4,12-13,15-26
		c14-64,25-97,34-97c9-0,13,27,13,81c4,20,11,29,20,27c3-1,6-2,9-5c6-7,8-15,6-24
		c-1-5-3-11-6-17c1-25,0-45-3-60c-5-27-16-40-34-38c-2,0-4,1-6,1c-24,5-40,28-48,69
		l-1-51c-0-7-3-9-9-8c-1,0-2,1-3,1c-15,3-21,13-18,29L488,248z"/>
	<path d="M282,446c6-2,8-5,6-11c-0-1-1-2-2-3c-6-14-17-18-32-12l-9,3l-2-27
		c4-7,10-12,18-14c3-2,6-3,9-4c7-2,8-9,2-20c-5-11-11-15-18-13c-1,0-5,2-12,4
		c-8,2-17,14-28,36c-1,3-1,7-1,10c-2,4-2,10-0,16l2,21l-16,5c0,0-0,0-1,0
		c-14,6-19,13-15,22c1,2,2,3,2,4c6,7,16,8,30,4l2-1l8,93c0,0,0,0,0,1c3,14,9,21,19,19
		c2-0,3-1,5-2c8-5,11-14,9-29l-9-84l-1-6l23-8L282,446z"/>
	<path d="M320,414c-20,5-32,21-36,49c-4,28,0,52,11,73c11,21,29,28,54,21
		c25-8,37-28,37-61c0-33-6-56-18-69S340,410,320,414z M341,522c-11,3-19-0-24-11
		c-5-10-7-22-6-35c1-13,6-21,15-23c9-2,16,0,21,7c5,7,8,18,9,34S352,519,341,522z"/>
	<path d="M428,390c-20,5-32,21-36,49c-4,28,0,52,11,73c11,21,29,28,54,21
		c25-8,37-28,37-61c0-33-6-56-18-69S449,385,428,390z M450,498c-11,3-19-0-24-11
		c-5-10-7-22-6-35c1-13,6-21,15-23c9-2,16,0,21,7c5,7,8,18,9,34C466,485,461,494,450,498
		z"/>
	<path d="M540,399l-8-94c-1-7-4-9-9-8c-1,0-2,1-3,1c-15,3-21,13-18,29l14,168
		c0,0,0,0,0,1c3,14,9,21,19,19c2-0,3-1,5-2c8-5,11-14,9-29L540,399z"/>
	<path d="M643,436c-3-13-14-21-33-24c-27-9-28-18-2-27l20-11c1-5,1-9,0-13
		c-2-7-6-12-14-15c-42,20-62,38-59,56c0,1,0,2,1,4c5,20,18,31,41,32c24,8,23,18-3,32
		c-14,1-21,6-21,15l3,12c1,6,5,9,13,9l14-5c25-7,40-22,45-44C647,450,646,443,643,436z"
		/>
	<path d="M613,124l-9-9c8-9,14-19,18-28c3-9,4-19,2-28c-0-2-1-3-1-4
		c-0-1-1-2-1-2l-19,5c-3-2-5-5-6-8c-2-3-3-6-3-9c-2-7-1-14,2-20
		c3-6,8-9,15-11c8-2,16-1,23,5c7,5,11,14,14,25c3,15,2,30-4,44C636,99,627,112,613,124z
		"/>
</g>
</svg>